SplineFontDB: 3.0
FontName: Nika-Regular
FullName: Nika Regular
FamilyName: Nika
Weight: Regular
Copyright: Copyright (c) 2016 Copyright Holder (info@font-store.ir), with Reserved Font Name "Farbod"
UComments: "2015-5-13: Created with FontForge (http://fontforge.org)"
Version: Version:0.0.5;RFB:1.2.5;Building:2016-03-20 16:16:26.369235
FONDName: RITA
ItalicAngle: 0
UnderlinePosition: 500
UnderlineWidth: 59
Ascent: 800
Descent: 500
InvalidEm: 0
sfntRevision: 0x00010000
LayerCount: 2
Layer: 0 0 "Back" 1
Layer: 1 0 "Fore" 0
PreferredKerning: 4
XUID: [1021 828 -1901974348 32649]
StyleMap: 0x0040
FSType: 8
OS2Version: 3
OS2_WeightWidthSlopeOnly: 0
OS2_UseTypoMetrics: 0
CreationTime: 1431477301
ModificationTime: 1458477986
PfmFamily: 17
TTFWeight: 400
TTFWidth: 5
LineGap: 0
VLineGap: 0
Panose: 2 0 5 3 0 0 0 0 0 0
OS2TypoAscent: 800
OS2TypoAOffset: 0
OS2TypoDescent: -500
OS2TypoDOffset: 0
OS2TypoLinegap: 0
OS2WinAscent: 1100
OS2WinAOffset: 0
OS2WinDescent: 700
OS2WinDOffset: 0
HheadAscent: 1100
HheadAOffset: 0
HheadDescent: -700
HheadDOffset: 0
OS2SubXSize: 780
OS2SubYSize: 839
OS2SubXOff: -107
OS2SubYOff: 168
OS2SupXSize: 780
OS2SupYSize: 839
OS2SupXOff: 369
OS2SupYOff: 575
OS2StrikeYSize: 59
OS2StrikeYPos: 310
OS2Vendor: 'RITA'
OS2CodePages: 00000040.00000000
OS2UnicodeRanges: 80002003.80002000.00000008.00000000
MacStyle: 0
Lookup: 4 1 1 "'ccmp' Glyph Composition/Decomposition in Arabic lookup 5" { "'ccmp' Glyph Composition/Decomposition in Arabic lookup 5-1"  } ['ccmp' ('DFLT' <'dflt' > 'arab' <'dflt' > ) ]
Lookup: 1 9 0 "'isol' Isolated Forms in Latin lookup 1" { "'isol' Isolated Forms in Latin lookup 1-1"  } ['isol' ('DFLT' <'dflt' > 'arab' <'dflt' > ) ]
Lookup: 1 9 0 "'fina' Terminal Forms in Arabic lookup 3" { "'fina' Terminal Forms in Arabic lookup 3-1"  } ['fina' ('DFLT' <'dflt' > 'arab' <'dflt' > ) ]
Lookup: 1 9 0 "'medi' Medial Forms in Arabic lookup 2" { "'medi' Medial Forms in Arabic lookup 2-1"  } ['medi' ('DFLT' <'dflt' > 'arab' <'dflt' > ) ]

StartChar: _.alef.isol
Encoding: 65536 -1 0
GlifName: _.alef.isol
Width: 217
VWidth: 1304
GlyphClass: 2
Flags: HMW
LayerCount: 2
Fore
SplineSet
64 718 m 2
 64 735 68 749 77 758 c 0
 86 767 107 781 141 800 c 1
 149 800 153 796 153 789 c 2
 153 -0 l 1
 131 -17 114 -25 102 -25 c 0
 93 -25 89 -20 89 -10 c 2
 64 700 l 1
 64 718 l 2
EndSplineSet
Colour: ffda6b
EndChar

StartChar: _.alef.fina
Encoding: 65537 -1 1
GlifName: _.alef.fina
Width: 306
VWidth: 1304
GlyphClass: 2
Flags: HMW
LayerCount: 2
Fore
SplineSet
64 718 m 0
 64 752 72 762 141 800 c 0
 148 800 153 798 153 789 c 2
 153 178 l 2
 153 175 153 171 153 168 c 0
 153 148 158 129 184 119 c 0
 215 107 257 100 306 100 c 1
 306 -0 l 1
 237 0 195 10 163 27 c 1
 87 60 83 129 82 176 c 2
 64 700 l 2
 64 707 64 713 64 718 c 0
EndSplineSet
Colour: ffda6b
EndChar

StartChar: _.beh.isol
Encoding: 65540 -1 4
GlifName: _.beh.isol
Width: 928
VWidth: 1304
GlyphClass: 2
UnlinkRmOvrlpSave: 1
Flags: HMW
LayerCount: 2
Fore
SplineSet
64 221 m 0
 64 274 77 340 106 420 c 1
 164 405 l 1
 145 348 132 296 132 253 c 0
 132 157 198 101 420 101 c 0
 422 101 423 101 425 101 c 0
 521 101 643 121 746 148 c 1
 746 149 l 1
 769 161 784 164 784 192 c 0
 784 219 771 267 739 365 c 1
 817 429 l 1
 836 377 864 295 864 220 c 0
 864 152 840 89 767 58 c 1
 767 60 l 1
 765 59 762 55 760 55 c 0
 668 24 521 1 424 -0 c 0
 230 0 64 32 64 221 c 0
EndSplineSet
Colour: ffda6b
EndChar

StartChar: _.beh.fina
Encoding: 65541 -1 5
GlifName: _.beh.fina
Width: 996
VWidth: 1304
GlyphClass: 2
UnlinkRmOvrlpSave: 1
Flags: HMW
LayerCount: 2
Fore
SplineSet
64 221 m 0
 64 276 78 343 106 420 c 1
 164 405 l 1
 143 341 132 290 132 253 c 0
 132 202 153 164 196 139 c 0
 239 114 314 101 420 101 c 2
 425 101 l 2
 533 101 645 118 761 152 c 1
 749 190 743 239 743 300 c 1
 804 346 l 1
 809 273 817 223 827 197 c 0
 855 133 911 101 996 100 c 1
 996 -0 l 1
 901 0 834 29 793 87 c 1
 792 85 784 77 770 63 c 0
 769 62 767 61 765 59 c 0
 763 57 761 56 760 55 c 0
 715 40 660 26 595 16 c 0
 530 6 473 1 424 0 c 0
 381 0 344 1 312 4 c 0
 280 7 246 14 214 24 c 0
 182 34 155 46 134 62 c 0
 113 78 97 99 84 126 c 0
 71 153 64 184 64 221 c 0
EndSplineSet
Colour: ffda6b
EndChar

StartChar: _.beh.medi
Encoding: 65542 -1 6
GlifName: _.beh.medi
Width: 388
VWidth: 1304
GlyphClass: 2
UnlinkRmOvrlpSave: 1
Flags: HMW
LayerCount: 2
Fore
SplineSet
-50 50 m 0
 -50 76 -26 100 -1 100 c 0
 36 100 72 104 108 114 c 0
 145 125 149 145 154 202 c 2
 165 311 l 1
 248 304 l 1
 236 181 l 2
 235 174 235 167 235 160 c 0
 235 142 240 125 266 119 c 0
 299 109 339 100 388 100 c 1
 388 -0 l 1
 320 0 277 10 245 27 c 1
 224 36 209 48 195 60 c 1
 162 29 97 0 0 -0 c 0
 -25 0 -50 24 -50 50 c 0
EndSplineSet
Colour: ffda6b
EndChar

StartChar: _.beh.init
Encoding: 65543 -1 7
GlifName: _.beh.init
Width: 327
VWidth: 1197
GlyphClass: 1
UnlinkRmOvrlpSave: 1
Flags: HMW
LayerCount: 2
Fore
SplineSet
216 400 m 1
 235 347 263 266 263 189 c 0
 263 117 238 58 167 27 c 1
 136 10 91 0 25 -0 c 2
 -1 -0 l 2
 -25 0 -50 24 -50 49 c 0
 -50 76 -27 100 -1 100 c 2
 24 100 l 2
 73 100 114 107 146 119 c 0
 169 130 183 134 183 162 c 0
 183 188 170 237 138 335 c 1
 216 400 l 1
EndSplineSet
Colour: ffda6b
EndChar

StartChar: _.heh.isol
Encoding: 65544 -1 8
GlifName: _.heh.isol
Width: 748
VWidth: 1304
GlyphClass: 1
UnlinkRmOvrlpSave: 1
Flags: HMW
LayerCount: 2
Fore
SplineSet
64 276 m 1
 96 367 116 429 169 461 c 0
 182 469 197 473 214 473 c 0
 328 473 527 321 684 320 c 1
 646 220 l 1
 630 220 l 1
 415 210 165 35 145 -141 c 1
 145 -139 l 1
 158 -235 250 -304 419 -304 c 0
 473 -304 536 -297 606 -281 c 1
 585 -379 l 1
 512 -392 449 -399 395 -399 c 0
 141 -399 85 -267 85 -161 c 0
 85 -137 88 -114 92 -94 c 0
 114 43 230 204 428 279 c 1
 346 317 271 359 203 359 c 0
 178 359 142 336 110 257 c 1
 64 276 l 1
EndSplineSet
Colour: ffda6b
EndChar

StartChar: _.heh.fina
Encoding: 65545 -1 9
GlifName: _.heh.fina
Width: 737
VWidth: 1304
GlyphClass: 1
UnlinkRmOvrlpSave: 1
Flags: HMW
LayerCount: 2
Fore
SplineSet
64 276 m 1
 96 367 116 429 169 461 c 0
 182 469 197 473 214 473 c 0
 328 473 527 321 684 320 c 1
 646 220 l 1
 630 220 l 1
 598 219 566 214 534 205 c 1
 567 129 623 99 725 99 c 0
 729 99 733 100 737 100 c 1
 737 -0 l 1
 572 0 496 57 463 183 c 1
 302 120 161 -9 145 -139 c 1
 158 -235 250 -304 419 -304 c 0
 473 -304 536 -297 606 -281 c 1
 585 -379 l 1
 512 -392 449 -399 395 -399 c 0
 141 -399 85 -267 85 -161 c 0
 85 -137 88 -114 92 -94 c 0
 114 43 230 204 428 279 c 1
 346 317 271 359 203 359 c 0
 178 359 142 336 110 257 c 1
 64 276 l 1
EndSplineSet
Colour: ffda6b
EndChar

StartChar: _.heh.medi
Encoding: 65546 -1 10
GlifName: _.heh.medi
Width: 714
VWidth: 1304
GlyphClass: 1
UnlinkRmOvrlpSave: 1
Flags: HMW
LayerCount: 2
Fore
SplineSet
-50 50 m 0
 -50 75 -26 100 -1 100 c 2
 8 100 l 2
 233 100 314 199 424 264 c 1
 424 271 l 1
 334 312 253 359 180 359 c 0
 155 359 119 336 87 257 c 1
 41 276 l 1
 73 367 93 429 146 461 c 0
 159 469 174 473 191 473 c 0
 305 473 505 321 662 320 c 1
 622 220 l 1
 582 220 l 2
 556 220 531 216 509 210 c 1
 542 131 600 99 703 99 c 0
 707 99 710 100 714 100 c 1
 714 -0 l 1
 550 0 474 57 440 180 c 1
 332 117 251 0 12 -0 c 2
 -1 -0 l 1
 -26 1 -50 24 -50 50 c 0
EndSplineSet
Colour: ffda6b
EndChar

StartChar: _.heh.init
Encoding: 65547 -1 11
GlifName: _.heh.init
Width: 726
VWidth: 1304
GlyphClass: 1
UnlinkRmOvrlpSave: 1
Flags: HMW
LayerCount: 2
Fore
SplineSet
-50 50 m 0
 -50 75 -26 100 -1 100 c 2
 8 100 l 2
 237 100 317 203 430 268 c 1
 336 309 254 359 180 359 c 0
 155 359 119 336 87 257 c 1
 41 276 l 1
 73 367 93 429 146 461 c 0
 159 469 174 473 191 473 c 0
 305 473 505 321 662 320 c 1
 622 220 l 1
 582 220 l 1
 370 219 338 0 12 -0 c 2
 -1 -0 l 1
 -26 1 -50 24 -50 50 c 0
EndSplineSet
Colour: ffda6b
EndChar

StartChar: _.sin.isol
Encoding: 65548 -1 12
GlifName: _.sin.isol
Width: 1265
VWidth: 1304
GlyphClass: 1
UnlinkRmOvrlpSave: 1
Flags: HMW
LayerCount: 2
Fore
SplineSet
1073 -21 m 0
 995 -21 932 10 896 58 c 1
 869 22 836 0 790 -0 c 0
 756 0 720 7 683 28 c 1
 685 2 686 -22 686 -47 c 0
 681 -187 485 -301 315 -301 c 0
 182 -301 64 -232 64 -52 c 0
 64 24 85 121 135 240 c 1
 186 219 l 1
 150 118 134 38 134 -24 c 0
 134 -149 201 -200 316 -200 c 0
 445 -200 586 -129 619 -90 c 1
 569 234 l 1
 645 299 l 1
 654 245 662 195 668 151 c 1
 714 112 755 100 793 100 c 0
 843 100 865 140 931 277 c 1
 991 245 l 1
 973 206 957 167 941 133 c 1
 970 100 1018 76 1067 76 c 0
 1080 76 1092 78 1105 81 c 1
 1112 101 1119 129 1119 171 c 0
 1119 205 1114 249 1105 305 c 1
 1188 333 l 1
 1197 285 1201 239 1201 195 c 0
 1201 74 1165 -21 1073 -21 c 0
EndSplineSet
Colour: ffda6b
EndChar

StartChar: _.sin.fina
Encoding: 65549 -1 13
GlifName: _.sin.fina
Width: 1400
VWidth: 1304
GlyphClass: 1
UnlinkRmOvrlpSave: 1
Flags: HMW
LayerCount: 2
Fore
SplineSet
64 -52 m 0
 64 24 85 121 135 240 c 1
 186 219 l 1
 150 118 134 38 134 -24 c 0
 134 -149 201 -200 316 -200 c 0
 445 -200 586 -129 619 -90 c 1
 569 234 l 1
 645 299 l 1
 654 245 662 195 668 151 c 1
 714 112 755 100 793 100 c 0
 843 100 865 140 931 277 c 1
 991 245 l 1
 974 208 959 172 943 139 c 1
 982 109 1020 100 1054 100 c 0
 1087 100 1107 118 1137 171 c 1
 1122 210 1112 253 1105 300 c 1
 1162 346 l 1
 1198 207 1220 100 1400 100 c 1
 1400 -0 l 1
 1290 0 1222 34 1179 92 c 1
 1147 38 1109 0 1051 -0 c 0
 1001 0 950 16 897 60 c 1
 870 23 837 0 790 -0 c 0
 756 0 720 7 683 28 c 1
 685 2 686 -22 686 -47 c 0
 681 -187 485 -301 315 -301 c 0
 182 -301 64 -232 64 -52 c 0
EndSplineSet
Colour: ffda6b
EndChar

StartChar: _.sin.medi
Encoding: 65550 -1 14
GlifName: _.sin.medi
Width: 976
VWidth: 1304
GlyphClass: 1
UnlinkRmOvrlpSave: 1
Flags: HMW
LayerCount: 2
Fore
SplineSet
-50 49 m 0
 -50 75 -29 97 -3 100 c 1
 100 100 180 137 264 333 c 1
 324 301 l 1
 299 237 275 187 250 146 c 1
 292 110 333 100 369 100 c 0
 419 100 440 140 506 277 c 1
 567 245 l 1
 550 208 535 172 519 139 c 1
 558 109 596 100 630 100 c 0
 663 100 683 118 713 171 c 1
 698 210 688 253 681 300 c 1
 738 346 l 1
 774 207 796 100 976 100 c 1
 976 -0 l 1
 866 0 798 34 755 92 c 1
 723 38 685 0 627 -0 c 0
 577 0 526 16 473 60 c 1
 446 23 413 0 366 -0 c 0
 312 0 255 20 196 75 c 1
 138 16 75 0 -1 -0 c 0
 -25 0 -50 24 -50 49 c 0
EndSplineSet
Colour: ffda6b
EndChar

StartChar: _.sin.init
Encoding: 65551 -1 15
GlifName: _.sin.init
Width: 844
VWidth: 1304
GlyphClass: 1
UnlinkRmOvrlpSave: 1
Flags: HMW
LayerCount: 2
Fore
SplineSet
651 -21 m 0
 573 -21 510 10 474 58 c 1
 447 22 415 0 369 -0 c 0
 315 0 258 20 199 75 c 1
 140 16 76 0 0 -0 c 0
 -26 0 -50 24 -50 50 c 0
 -50 75 -26 99 -1 100 c 1
 102 100 182 137 266 333 c 1
 327 301 l 1
 302 237 278 187 253 146 c 1
 295 110 335 100 371 100 c 0
 421 100 443 140 509 277 c 1
 569 245 l 1
 551 206 535 167 519 133 c 1
 548 100 597 76 646 76 c 0
 659 76 671 78 684 81 c 1
 691 101 697 129 697 171 c 0
 697 205 693 249 684 305 c 1
 766 333 l 1
 775 285 780 239 780 195 c 0
 780 74 743 -21 651 -21 c 0
EndSplineSet
Colour: ffda6b
EndChar

StartChar: _.sad.isol
Encoding: 65552 -1 16
GlifName: _.sad.isol
Width: 1331
VWidth: 1304
GlyphClass: 1
UnlinkRmOvrlpSave: 1
Flags: HMW
LayerCount: 2
Fore
SplineSet
64 -51 m 0
 64 25 85 121 135 240 c 1
 185 219 l 1
 149 118 133 39 133 -23 c 0
 133 -148 201 -200 317 -200 c 0
 445 -200 586 -129 619 -90 c 1
 568 234 l 1
 645 299 l 1
 654 247 661 200 668 156 c 1
 677 139 690 127 707 118 c 1
 877 309 979 402 1079 402 c 0
 1213 402 1267 278 1267 204 c 2
 1267 203 l 2
 1267 92 1240 1 1036 -0 c 1
 816 -0 l 1
 770 1 723 6 684 24 c 1
 685 7 686 -9 686 -26 c 0
 686 -33 685 -40 685 -47 c 0
 680 -187 485 -301 315 -301 c 0
 182 -301 64 -231 64 -51 c 0
769 103 m 1
 787 101 806 100 823 100 c 2
 1036 100 l 2
 1091 100 1158 110 1192 140 c 1
 1206 151 l 1
 1192 211 1143 300 1053 300 c 0
 972 300 879 232 769 103 c 1
EndSplineSet
Colour: ffda6b
EndChar

StartChar: _.sad.fina
Encoding: 65553 -1 17
GlifName: _.sad.fina
Width: 1406
VWidth: 1304
GlyphClass: 1
UnlinkRmOvrlpSave: 1
Flags: HMW
LayerCount: 2
Fore
SplineSet
64 -52 m 0
 64 24 86 120 136 240 c 1
 185 219 l 1
 150 119 133 40 133 -22 c 0
 133 -148 202 -200 317 -200 c 0
 445 -200 585 -129 619 -90 c 1
 569 234 l 1
 645 299 l 1
 652 245 662 196 669 150 c 1
 678 136 689 125 704 118 c 1
 874 309 976 402 1076 402 c 0
 1210 402 1263 273 1263 199 c 0
 1263 176 1261 154 1256 136 c 1
 1293 109 1333 100 1406 100 c 1
 1406 -0 l 1
 1308 0 1249 24 1215 61 c 1
 1174 19 1111 1 1033 -0 c 1
 813 -0 l 1
 769 1 722 6 683 23 c 1
 684 9 686 -4 686 -18 c 0
 686 -28 686 -37 685 -47 c 0
 681 -187 485 -301 314 -301 c 0
 181 -301 64 -231 64 -52 c 0
766 103 m 1
 784 101 803 100 820 100 c 2
 1024 100 l 2
 1109 100 1166 121 1203 146 c 1
 1192 205 1142 300 1050 300 c 0
 969 300 876 232 766 103 c 1
EndSplineSet
Colour: ffda6b
EndChar

StartChar: _.sad.medi
Encoding: 65554 -1 18
GlifName: _.sad.medi
Width: 977
VWidth: 1304
GlyphClass: 1
UnlinkRmOvrlpSave: 1
Flags: HMW
LayerCount: 2
Fore
SplineSet
-50 50 m 0
 -49 75 -26 100 -1 100 c 0
 69 100 126 113 157 136 c 1
 141 190 135 257 135 300 c 1
 205 322 l 1
 210 210 221 146 275 118 c 1
 445 309 547 402 647 402 c 0
 781 402 834 273 834 199 c 0
 834 176 832 154 827 136 c 1
 864 109 904 100 977 100 c 1
 977 -0 l 1
 879 0 820 24 786 61 c 1
 745 19 682 1 604 -0 c 1
 383 -0 l 1
 313 1 239 14 196 66 c 1
 163 28 103 0 0 -0 c 1
 -25 1 -50 24 -50 50 c 0
337 103 m 1
 355 101 374 100 391 100 c 2
 595 100 l 2
 680 100 737 121 774 146 c 1
 763 205 713 300 621 300 c 0
 540 300 447 232 337 103 c 1
EndSplineSet
Colour: ffda6b
EndChar

StartChar: _.sad.init
Encoding: 65555 -1 19
GlifName: _.sad.init
Width: 898
VWidth: 1304
GlyphClass: 1
UnlinkRmOvrlpSave: 1
Flags: HMW
LayerCount: 2
Fore
SplineSet
-50 50 m 0
 -49 75 -26 100 -1 100 c 0
 69 100 126 113 157 136 c 1
 141 190 135 257 135 300 c 1
 205 322 l 1
 210 210 221 146 275 118 c 1
 445 309 547 402 647 402 c 0
 781 402 834 273 834 199 c 0
 834 55 739 2 604 -0 c 1
 383 -0 l 1
 313 1 239 14 196 66 c 1
 163 28 103 0 0 -0 c 1
 -25 1 -50 24 -50 50 c 0
337 103 m 1
 355 101 374 100 391 100 c 2
 595 100 l 2
 680 100 737 121 774 146 c 1
 763 205 713 300 621 300 c 0
 540 300 447 232 337 103 c 1
EndSplineSet
Colour: ffda6b
EndChar

StartChar: _.ta.isol
Encoding: 65556 -1 20
GlifName: _.ta.isol
Width: 880
VWidth: 1304
GlyphClass: 1
UnlinkRmOvrlpSave: 1
Flags: HMW
LayerCount: 2
Fore
SplineSet
64 87 m 0
 64 95 69 100 82 100 c 2
 241 100 l 1
 252 112 262 123 272 135 c 1
 248 700 l 2
 248 707 248 713 248 718 c 0
 248 752 256 762 325 800 c 0
 332 800 337 798 337 789 c 2
 337 205 l 1
 461 337 547 402 629 402 c 0
 763 402 816 273 816 199 c 0
 816 55 721 2 586 -0 c 1
 148 -0 l 2
 130 0 64 60 64 87 c 0
315 100 m 1
 577 100 l 2
 662 100 719 121 756 146 c 1
 745 205 695 300 603 300 c 0
 522 300 427 232 315 100 c 1
EndSplineSet
Colour: ffda6b
EndChar

StartChar: _.ta.fina
Encoding: 65557 -1 21
GlifName: _.ta.fina
Width: 963
VWidth: 1304
GlyphClass: 1
UnlinkRmOvrlpSave: 1
Flags: HMW
LayerCount: 2
Fore
SplineSet
64 87 m 0
 64 95 69 100 82 100 c 2
 241 100 l 1
 252 112 262 123 272 135 c 1
 248 700 l 2
 248 707 248 713 248 718 c 0
 248 752 256 762 325 800 c 0
 332 800 337 798 337 789 c 2
 337 205 l 1
 461 337 547 402 629 402 c 0
 763 402 816 273 816 199 c 0
 816 177 814 156 810 138 c 1
 847 111 888 100 963 100 c 1
 963 -0 l 1
 862 0 803 26 770 63 c 1
 728 20 665 1 586 -0 c 1
 148 -0 l 2
 130 0 64 60 64 87 c 0
315 100 m 1
 577 100 l 2
 662 100 719 121 756 146 c 1
 745 205 695 300 603 300 c 0
 522 300 427 232 315 100 c 1
EndSplineSet
Colour: ffda6b
EndChar

StartChar: _.ta.medi
Encoding: 65558 -1 22
GlifName: _.ta.medi
Width: 775
VWidth: 1304
GlyphClass: 1
UnlinkRmOvrlpSave: 1
Flags: HMW
LayerCount: 2
Fore
SplineSet
-50 50 m 0
 -49 76 -25 100 0 100 c 2
 63 100 l 1
 74 112 84 123 94 135 c 1
 71 700 l 2
 71 707 70 713 70 718 c 0
 70 752 78 762 147 800 c 0
 154 800 159 798 159 789 c 2
 159 205 l 1
 283 337 369 402 451 402 c 0
 585 402 638 273 638 199 c 0
 638 174 636 153 630 132 c 1
 666 109 706 100 775 100 c 1
 775 -0 l 1
 679 0 620 24 586 58 c 1
 545 19 483 1 408 -0 c 1
 0 -0 l 2
 -25 0 -50 24 -50 50 c 0
137 100 m 1
 399 100 l 2
 484 100 541 121 578 146 c 1
 567 205 517 300 425 300 c 0
 344 300 249 232 137 100 c 1
EndSplineSet
Colour: ffda6b
EndChar

StartChar: _.ta.init
Encoding: 65559 -1 23
GlifName: _.ta.init
Width: 702
VWidth: 1304
GlyphClass: 1
UnlinkRmOvrlpSave: 1
Flags: HMW
LayerCount: 2
Fore
SplineSet
-50 50 m 0
 -49 76 -25 100 0 100 c 2
 63 100 l 1
 74 112 84 123 94 135 c 1
 71 700 l 2
 71 707 70 713 70 718 c 0
 70 752 78 762 147 800 c 0
 154 800 159 798 159 789 c 2
 159 205 l 1
 283 337 369 402 451 402 c 0
 585 402 638 273 638 199 c 0
 638 55 543 2 408 -0 c 1
 0 -0 l 2
 -25 0 -50 24 -50 50 c 0
137 100 m 1
 399 100 l 2
 484 100 541 121 578 146 c 1
 567 205 517 300 425 300 c 0
 344 300 249 232 137 100 c 1
EndSplineSet
Colour: ffda6b
EndChar

StartChar: _.ein.isol
Encoding: 65560 -1 24
GlifName: _.ein.isol
Width: 688
VWidth: 1304
GlyphClass: 1
UnlinkRmOvrlpSave: 1
Flags: HMW
LayerCount: 2
Fore
SplineSet
64 -161 m 0
 64 -137 67 -114 71 -94 c 0
 88 9 159 121 278 199 c 1
 230 253 189 320 189 393 c 0
 189 411 192 429 197 448 c 0
 220 526 306 602 406 602 c 0
 462 602 522 570 577 537 c 1
 556 469 l 1
 505 492 457 501 416 501 c 0
 323 501 264 457 261 442 c 0
 260 439 260 435 260 431 c 0
 260 370 341 272 416 266 c 1
 466 267 506 274 534 280 c 1
 534 280 577 289 624 306 c 1
 594 214 l 1
 530 198 459 177 401 152 c 1
 401 151 l 1
 384 144 367 137 351 127 c 1
 351 128 l 1
 231 64 136 -34 124 -139 c 1
 138 -235 229 -304 397 -304 c 0
 451 -304 513 -297 583 -281 c 1
 563 -379 l 1
 490 -392 427 -399 373 -399 c 0
 119 -399 64 -267 64 -161 c 0
EndSplineSet
Colour: ffda6b
EndChar

StartChar: _.ein.fina
Encoding: 65561 -1 25
GlifName: _.ein.fina
Width: 655
VWidth: 1304
GlyphClass: 1
UnlinkRmOvrlpSave: 1
Flags: HMW
LayerCount: 2
Fore
SplineSet
64 304 m 1
 64 304 90 396 92 407 c 1
 179 456 276 484 358 491 c 0
 370 492 382 493 393 493 c 0
 503 493 542 440 542 375 c 0
 542 367 541 359 540 351 c 0
 530 286 479 207 395 150 c 1
 439 122 493 102 561 101 c 1
 655 101 l 1
 655 1 l 1
 554 1 l 2
 549 1 544 1 539 1 c 0
 441 1 373 48 321 104 c 1
 220 41 144 -46 134 -139 c 1
 148 -235 239 -304 407 -304 c 0
 461 -304 523 -297 593 -281 c 1
 574 -379 l 1
 501 -392 437 -399 383 -399 c 0
 129 -399 74 -267 74 -161 c 0
 74 -137 77 -114 81 -94 c 0
 97 2 158 105 261 181 c 1
 244 206 228 228 213 246 c 0
 179 287 131 314 96 314 c 0
 90 314 84 313 79 311 c 2
 64 304 l 1
165 347 m 1
 192 333 222 311 250 283 c 0
 268 265 288 240 314 215 c 1
 318 215 l 1
 364 236 470 307 475 351 c 1
 466 376 427 392 377 392 c 0
 301 392 232 371 165 347 c 1
EndSplineSet
Colour: ffda6b
EndChar

StartChar: _.ein.medi
Encoding: 65562 -1 26
GlifName: _.ein.medi
Width: 648
VWidth: 1304
GlyphClass: 1
UnlinkRmOvrlpSave: 1
Flags: HMW
LayerCount: 2
Fore
SplineSet
-50 49 m 0
 -50 76 -27 100 -1 100 c 0
 74 100 166 117 248 144 c 1
 233 161 220 180 206 196 c 0
 172 237 124 263 89 263 c 0
 83 263 77 263 72 261 c 2
 57 253 l 1
 57 253 84 346 85 356 c 1
 172 406 270 434 351 441 c 0
 363 442 374 442 384 442 c 0
 495 442 536 390 536 326 c 0
 536 318 535 309 534 300 c 0
 525 240 478 177 407 124 c 1
 448 110 496 101 556 100 c 1
 648 100 l 1
 648 -0 l 1
 547 -0 l 2
 540 0 534 -1 527 -1 c 0
 434 -1 369 31 318 72 c 1
 229 28 118 0 -1 -0 c 0
 -25 0 -50 24 -50 49 c 0
159 295 m 1
 216 269 262 207 317 168 c 1
 404 205 468 252 468 300 c 1
 460 324 420 340 370 340 c 0
 294 340 225 320 159 295 c 1
EndSplineSet
Colour: ffda6b
EndChar

StartChar: _.ein.init
Encoding: 65563 -1 27
GlifName: _.ein.init
Width: 574
VWidth: 1304
GlyphClass: 1
UnlinkRmOvrlpSave: 1
Flags: HMW
LayerCount: 2
Fore
SplineSet
-50 50 m 0
 -50 63 -45 74 -35 84 c 0
 -25 94 -14 100 -1 100 c 0
 44 100 97 106 157 117 c 1
 116 170 96 223 96 276 c 0
 96 296 99 315 104 333 c 0
 118 382 142 419 178 443 c 0
 214 467 255 479 302 479 c 0
 367 479 428 461 486 425 c 1
 462 356 l 1
 415 374 369 383 322 383 c 0
 279 383 243 376 214 362 c 0
 185 348 170 332 167 317 c 0
 166 314 166 311 166 306 c 0
 166 275 182 243 216 208 c 0
 250 173 285 154 321 151 c 1
 396 169 459 179 510 180 c 1
 489 100 l 1
 462 97 420 87 362 70 c 0
 304 53 243 37 178 22 c 0
 113 7 54 0 0 0 c 0
 -13 1 -24 6 -34 16 c 0
 -44 26 -50 37 -50 50 c 0
EndSplineSet
Colour: ffda6b
EndChar

StartChar: _.feh.isol
Encoding: 65564 -1 28
GlifName: _.feh.isol
Width: 935
VWidth: 1304
GlyphClass: 1
UnlinkRmOvrlpSave: 1
Flags: HMW
LayerCount: 2
Fore
SplineSet
702 202 m 0
 584 202 549 268 549 332 c 0
 549 470 638 578 703 578 c 0
 811 578 871 452 871 270 c 0
 871 236 869 199 865 162 c 0
 858 81 818 73 760 55 c 0
 668 24 521 1 424 -0 c 0
 230 0 64 32 64 221 c 0
 64 274 77 340 106 420 c 1
 164 405 l 1
 145 348 132 296 132 253 c 0
 132 157 198 101 420 101 c 0
 422 101 423 101 425 101 c 0
 535 101 679 125 791 161 c 1
 796 172 798 187 798 203 c 0
 798 206 798 210 798 213 c 1
 769 207 735 202 702 202 c 0
608 368 m 0
 608 316 654 303 703 303 c 0
 734 303 766 308 787 312 c 1
 781 430 736 480 692 480 c 0
 691 480 l 0
 653 480 608 414 608 368 c 0
EndSplineSet
Colour: ffda6b
EndChar

StartChar: _.feh.fina
Encoding: 65565 -1 29
GlifName: _.feh.fina
Width: 1010
VWidth: 1304
GlyphClass: 1
UnlinkRmOvrlpSave: 1
Flags: HMW
LayerCount: 2
Fore
SplineSet
732 451 m 0
 762 451 787 438 808 414 c 0
 829 390 844 365 852 338 c 0
 860 311 865 286 866 262 c 0
 864 179 823 112 743 60 c 1
 720 141 l 1
 769 166 801 197 817 234 c 1
 812 261 801 287 785 310 c 0
 769 333 749 346 724 349 c 1
 698 346 676 335 658 314 c 0
 640 293 627 270 622 244 c 1
 631 206 666 173 728 144 c 0
 790 115 861 100 940 100 c 2
 1010 100 l 1
 1010 -0 l 1
 940 -0 l 2
 863 0 794 16 733 47 c 1
 627 17 524 1 424 0 c 0
 381 0 344 1 312 4 c 0
 280 7 246 14 214 24 c 0
 182 34 155 46 134 62 c 0
 113 78 97 99 84 126 c 0
 71 153 64 184 64 221 c 0
 64 276 78 343 106 420 c 1
 164 405 l 1
 143 341 132 290 132 253 c 0
 132 202 153 164 196 139 c 0
 239 114 314 101 420 101 c 2
 425 101 l 2
 480 101 549 108 632 122 c 1
 603 153 586 183 580 210 c 0
 577 217 576 227 576 240 c 0
 576 267 582 296 593 328 c 0
 604 360 623 388 648 413 c 0
 673 438 701 451 732 451 c 0
EndSplineSet
Colour: ffda6b
EndChar

StartChar: _.feh.medi
Encoding: 65566 -1 30
GlifName: _.feh.medi
Width: 500
VWidth: 1304
GlyphClass: 1
UnlinkRmOvrlpSave: 1
Flags: HMW
LayerCount: 2
Fore
SplineSet
221 451 m 0
 251 451 277 438 298 414 c 0
 319 390 334 365 342 338 c 0
 350 311 354 285 355 262 c 0
 354 212 338 166 306 126 c 0
 274 86 232 55 178 33 c 0
 124 11 65 0 0 0 c 0
 -13 0 -25 5 -35 15 c 0
 -45 25 -50 37 -50 50 c 0
 -50 63 -45 74 -35 84 c 0
 -25 94 -14 100 -1 100 c 0
 74 100 140 112 196 136 c 0
 252 160 289 192 307 234 c 1
 300 262 289 287 274 310 c 0
 259 333 240 346 215 349 c 1
 189 346 167 335 148 314 c 0
 129 293 117 269 112 244 c 1
 121 206 156 173 218 144 c 0
 280 115 351 100 430 100 c 2
 500 100 l 1
 500 -0 l 1
 430 -0 l 2
 379 0 331 8 286 22 c 0
 241 36 204 54 175 76 c 0
 146 98 123 120 105 143 c 0
 87 166 76 189 71 210 c 0
 68 217 67 227 67 240 c 0
 67 267 73 296 84 328 c 0
 95 360 113 388 138 413 c 0
 163 438 190 451 221 451 c 0
EndSplineSet
Colour: ffda6b
EndChar

StartChar: _.feh.init
Encoding: 65567 -1 31
GlifName: _.feh.init
Width: 388
VWidth: 1304
GlyphClass: 1
UnlinkRmOvrlpSave: 1
Flags: HMW
LayerCount: 2
Fore
SplineSet
155 202 m 0
 37 202 3 268 3 332 c 0
 3 470 92 578 157 578 c 0
 265 578 324 452 324 270 c 0
 324 236 322 199 318 162 c 1
 308 45 192 0 78 -0 c 2
 -2 -0 l 1
 -26 1 -50 23 -50 48 c 0
 -50 74 -28 100 -2 100 c 2
 78 100 l 2
 133 100 177 109 211 123 c 0
 232 132 252 160 252 200 c 0
 252 204 252 209 252 213 c 1
 223 207 188 202 155 202 c 0
62 368 m 0
 62 316 108 303 157 303 c 0
 188 303 220 308 241 312 c 1
 235 430 190 480 146 480 c 0
 145 480 l 0
 107 480 62 414 62 368 c 0
EndSplineSet
Colour: ffda6b
EndChar

StartChar: _.qaf.isol
Encoding: 65568 -1 32
GlifName: _.qaf.isol
Width: 755
VWidth: 1304
GlyphClass: 1
UnlinkRmOvrlpSave: 1
Flags: HMW
LayerCount: 2
Fore
SplineSet
520 1 m 0
 402 1 369 70 369 133 c 0
 369 271 458 379 523 379 c 0
 629 379 691 253 691 73 c 0
 691 69 691 67 691 63 c 0
 691 35 690 -14 686 -48 c 0
 680 -188 485 -301 315 -301 c 0
 182 -301 64 -232 64 -52 c 0
 64 24 85 121 135 240 c 1
 186 219 l 1
 150 118 134 38 134 -24 c 0
 134 -149 201 -200 316 -200 c 0
 434 -200 562 -141 609 -100 c 1
 617 -85 620 -57 620 -30 c 0
 620 -15 619 -1 618 13 c 1
 588 7 553 1 520 1 c 0
428 168 m 0
 428 115 475 102 524 102 c 0
 555 102 586 108 607 112 c 1
 601 230 556 279 512 280 c 0
 474 280 428 213 428 168 c 0
EndSplineSet
Colour: ffda6b
EndChar

StartChar: _.qaf.fina
Encoding: 65569 -1 33
GlifName: _.qaf.fina
Width: 815
VWidth: 1304
GlyphClass: 1
UnlinkRmOvrlpSave: 1
Flags: HMW
LayerCount: 2
Fore
SplineSet
64 -52 m 0
 64 24 85 121 135 240 c 1
 186 219 l 1
 150 118 134 38 134 -24 c 0
 134 -149 201 -200 316 -200 c 0
 433 -200 559 -141 607 -102 c 1
 617 -90 620 -66 620 -40 c 0
 620 -27 619 -13 618 -0 c 1
 512 -0 l 1
 399 4 369 70 369 132 c 0
 369 270 458 378 523 378 c 0
 624 378 685 265 691 100 c 1
 815 100 l 1
 815 -0 l 1
 689 -0 l 1
 688 -17 687 -36 686 -51 c 0
 677 -190 484 -301 315 -301 c 0
 182 -301 64 -232 64 -52 c 0
428 167 m 0
 428 115 475 100 524 100 c 2
 608 100 l 1
 608 112 l 1
 602 230 556 278 512 279 c 0
 474 279 428 214 428 167 c 0
EndSplineSet
Colour: ffda6b
EndChar

StartChar: _.kaf.isol.fa
Encoding: 65570 -1 34
GlifName: _.kaf.isol.fa
Width: 1107
VWidth: 1304
GlyphClass: 1
UnlinkRmOvrlpSave: 1
Flags: HMW
LayerCount: 2
Fore
SplineSet
64 221 m 0
 64 274 77 340 106 420 c 1
 164 405 l 1
 145 348 132 296 132 253 c 0
 132 157 198 101 420 101 c 0
 422 101 423 101 425 101 c 0
 537 101 684 126 797 162 c 1
 798 166 799 172 799 179 c 0
 799 233 757 362 573 500 c 1
 610 620 l 1
 1043 800 l 1
 1037 692 l 1
 672 548 l 1
 809 430 864 301 865 199 c 0
 865 189 865 180 865 170 c 0
 858 81 819 73 760 55 c 0
 668 24 521 1 424 -0 c 0
 230 0 64 32 64 221 c 0
EndSplineSet
Colour: ffda6b
EndChar

StartChar: _.kaf.isol.ar
Encoding: 65571 -1 35
GlifName: _.kaf.isol.ar
Width: 927
VWidth: 1304
GlyphClass: 1
UnlinkRmOvrlpSave: 1
Flags: HMW
LayerCount: 2
Fore
SplineSet
64 231 m 0
 64 280 78 337 107 400 c 1
 155 379 l 1
 136 339 127 303 127 271 c 0
 127 240 136 212 154 189 c 0
 172 166 195 147 226 134 c 0
 257 121 292 111 329 105 c 0
 366 99 407 96 452 96 c 0
 573 96 684 113 787 146 c 0
 790 147 793 148 797 151 c 1
 773 700 l 1
 853 720 l 1
 863 181 l 2
 863 163 860 144 855 122 c 0
 850 100 842 84 832 74 c 0
 813 55 766 37 689 20 c 0
 612 3 533 -5 451 -5 c 0
 400 -5 352 -2 308 6 c 0
 264 14 224 27 186 44 c 0
 148 61 118 86 96 118 c 0
 74 150 64 188 64 231 c 0
EndSplineSet
Colour: ffda6b
EndChar

StartChar: _.kaf.fina.fa
Encoding: 65572 -1 36
GlifName: _.kaf.fina.fa
Width: 1066
VWidth: 1304
GlyphClass: 1
UnlinkRmOvrlpSave: 1
Flags: HMW
LayerCount: 2
Fore
SplineSet
64 221 m 0
 64 274 77 340 106 420 c 1
 164 405 l 1
 145 348 132 296 132 253 c 0
 132 157 198 101 420 101 c 0
 422 101 423 101 425 101 c 0
 537 101 684 126 797 162 c 1
 798 166 798 172 798 178 c 0
 798 202 790 241 766 288 c 1
 766 289 l 1
 735 348 675 422 573 500 c 1
 610 620 l 1
 1043 800 l 1
 1037 692 l 1
 672 548 l 1
 731 496 774 443 805 391 c 1
 826 352 l 1
 881 241 928 100 1066 100 c 1
 1066 -0 l 1
 950 0 895 46 852 116 c 1
 836 77 803 69 760 55 c 0
 668 24 521 1 424 -0 c 0
 230 0 64 32 64 221 c 0
EndSplineSet
Colour: ffda6b
EndChar

StartChar: _.kaf.fina.ar
Encoding: 65573 -1 37
GlifName: _.kaf.fina.ar
Width: 1058
VWidth: 1304
GlyphClass: 1
UnlinkRmOvrlpSave: 1
Flags: HMW
LayerCount: 2
Fore
SplineSet
64 221 m 0
 64 276 78 343 106 420 c 1
 164 405 l 1
 143 341 132 290 132 253 c 0
 132 202 153 164 196 139 c 0
 239 114 314 101 420 101 c 2
 425 101 l 2
 480 101 543 107 612 119 c 0
 681 131 745 146 802 165 c 1
 777 700 l 1
 857 720 l 1
 867 240 l 1
 887 195 911 160 940 136 c 0
 969 112 1009 101 1058 100 c 1
 1058 -0 l 1
 1004 0 961 8 928 23 c 0
 895 38 866 63 842 98 c 1
 835 87 825 79 814 74 c 0
 803 69 787 63 767 57 c 0
 764 56 762 56 760 55 c 0
 715 40 660 26 595 16 c 0
 530 6 473 1 424 0 c 0
 381 0 344 1 312 4 c 0
 280 7 246 14 214 24 c 0
 182 34 155 46 134 62 c 0
 113 78 97 99 84 126 c 0
 71 153 64 184 64 221 c 0
EndSplineSet
Colour: ffda6b
EndChar

StartChar: _.kaf.medi
Encoding: 65574 -1 38
GlifName: _.kaf.medi
Width: 493
VWidth: 1304
GlyphClass: 1
UnlinkRmOvrlpSave: 1
Flags: HMW
LayerCount: 2
Fore
SplineSet
60 100 m 2
 127 100 225 118 225 179 c 0
 225 203 217 241 193 288 c 1
 193 289 l 1
 162 348 101 422 -1 500 c 1
 36 620 l 1
 470 800 l 1
 463 692 l 1
 99 548 l 1
 158 496 201 443 232 391 c 0
 239 377 247 366 253 352 c 0
 308 241 355 100 493 100 c 1
 493 -0 l 1
 377 0 322 47 279 116 c 1
 243 24 142 0 51 -0 c 2
 -1 -0 l 2
 -25 0 -50 24 -50 49 c 0
 -50 76 -27 100 -1 100 c 2
 60 100 l 2
EndSplineSet
Colour: ffda6b
EndChar

StartChar: _.kaf.init
Encoding: 65575 -1 39
GlifName: _.kaf.init
Width: 534
VWidth: 1304
GlyphClass: 1
UnlinkRmOvrlpSave: 1
Flags: HMW
LayerCount: 2
Fore
SplineSet
99 548 m 1
 238 428 291 301 291 192 c 0
 291 51 187 0 51 -0 c 2
 -1 -0 l 2
 -25 0 -50 24 -50 49 c 0
 -50 76 -27 100 -1 100 c 2
 60 100 l 2
 120 100 208 119 222 160 c 0
 224 165 225 171 225 179 c 0
 225 233 182 361 -1 500 c 1
 36 620 l 1
 470 800 l 1
 463 692 l 1
 99 548 l 1
EndSplineSet
Colour: ffda6b
EndChar

StartChar: _.ghaf.isol
Encoding: 65577 -1 41
GlifName: _.ghaf.isol
Width: 1107
VWidth: 0
GlyphClass: 1
UnlinkRmOvrlpSave: 1
Flags: HMW
LayerCount: 2
Fore
SplineSet
64 221 m 0
 64 274 77 340 106 420 c 1
 164 405 l 1
 145 348 132 296 132 253 c 0
 132 157 198 101 420 101 c 0
 422 101 423 101 425 101 c 0
 537 101 684 126 797 162 c 1
 798 166 799 172 799 179 c 0
 799 233 757 362 573 500 c 1
 610 620 l 1
 1043 800 l 1
 1037 692 l 1
 672 548 l 1
 809 430 864 301 865 199 c 0
 865 189 865 180 865 170 c 0
 858 81 819 73 760 55 c 0
 668 24 521 1 424 -0 c 0
 230 0 64 32 64 221 c 0
663 682 m 1
 679 740 l 1
 988 868 l 1
 975 814 l 1
 663 682 l 1
EndSplineSet
Colour: ffda6b
EndChar

StartChar: _.ghaf.fina
Encoding: 65578 -1 42
GlifName: _.ghaf.fina
Width: 1066
VWidth: 0
GlyphClass: 1
Flags: HMW
LayerCount: 2
Fore
SplineSet
64 221 m 0
 64 274 77 340 106 420 c 1
 164 405 l 1
 145 348 132 296 132 253 c 0
 132 157 198 101 420 101 c 0
 422 101 423 101 425 101 c 0
 537 101 684 126 797 162 c 1
 798 166 798 172 798 178 c 0
 798 202 790 241 766 288 c 1
 766 289 l 1
 735 348 675 422 573 500 c 1
 610 620 l 1
 1043 800 l 1
 1037 692 l 1
 672 548 l 1
 731 496 774 443 805 391 c 1
 826 352 l 1
 881 241 928 100 1066 100 c 1
 1066 -0 l 1
 950 0 895 46 852 116 c 1
 836 77 803 69 760 55 c 0
 668 24 521 1 424 -0 c 0
 230 0 64 32 64 221 c 0
663 682 m 1
 679 740 l 1
 988 868 l 1
 975 814 l 1
 663 682 l 1
EndSplineSet
Colour: ffda6b
EndChar

StartChar: _.lam.isol
Encoding: 65580 -1 44
GlifName: _.lam.isol
Width: 749
VWidth: 1304
GlyphClass: 1
UnlinkRmOvrlpSave: 1
Flags: HMW
LayerCount: 2
Fore
SplineSet
64 49 m 0
 64 130 88 227 135 340 c 1
 185 319 l 1
 150 222 133 141 133 76 c 0
 133 -41 194 -100 317 -100 c 0
 375 -100 435 -87 497 -62 c 0
 559 -37 600 -13 619 10 c 1
 596 700 l 1
 596 718 l 2
 596 735 600 749 609 758 c 0
 618 767 639 781 673 800 c 1
 681 800 685 796 685 789 c 2
 685 48 l 1
 682 3 661 -38 623 -77 c 0
 585 -116 538 -146 482 -168 c 0
 426 -190 371 -201 315 -201 c 0
 242 -200 182 -180 135 -139 c 0
 88 -98 64 -36 64 49 c 0
EndSplineSet
Colour: ffda6b
EndChar

StartChar: _.lam.fina
Encoding: 65581 -1 45
GlifName: _.lam.fina
Width: 854
VWidth: 1304
GlyphClass: 1
UnlinkRmOvrlpSave: 1
Flags: HMW
LayerCount: 2
Fore
SplineSet
64 -51 m 0
 64 30 88 127 135 240 c 1
 185 219 l 1
 150 122 133 41 133 -23 c 0
 133 -141 194 -200 317 -200 c 0
 376 -200 436 -187 498 -162 c 0
 560 -137 600 -113 619 -90 c 1
 596 700 l 1
 596 718 l 2
 596 735 600 749 609 758 c 0
 618 767 639 781 673 800 c 1
 681 800 685 796 685 789 c 2
 685 151 l 1
 706 132 730 118 754 111 c 0
 778 104 811 100 854 100 c 1
 854 -0 l 1
 780 0 724 14 685 42 c 1
 685 -49 l 2
 683 -94 663 -136 625 -175 c 0
 587 -214 540 -246 484 -268 c 0
 428 -290 372 -301 315 -301 c 0
 242 -301 182 -281 135 -240 c 0
 88 -199 64 -136 64 -51 c 0
EndSplineSet
Colour: ffda6b
EndChar

StartChar: _.lam.medi
Encoding: 65582 -1 46
GlifName: _.lam.medi
Width: 371
VWidth: 1304
GlyphClass: 1
UnlinkRmOvrlpSave: 1
Flags: HMW
LayerCount: 2
Fore
SplineSet
-50 50 m 0
 -50 75 -26 100 -1 100 c 0
 67 100 117 115 153 133 c 1
 133 700 l 2
 133 707 133 713 133 718 c 0
 133 752 141 762 210 800 c 0
 217 800 222 798 222 789 c 2
 222 130 l 1
 258 113 307 100 371 100 c 1
 371 -0 l 1
 293 0 228 15 185 56 c 1
 143 15 78 0 0 -0 c 1
 -25 1 -50 24 -50 50 c 0
EndSplineSet
Colour: ffda6b
EndChar

StartChar: _.lam.init
Encoding: 65583 -1 47
GlifName: _.lam.init
Width: 303
VWidth: 1304
GlyphClass: 1
UnlinkRmOvrlpSave: 1
Flags: HMW
LayerCount: 2
Fore
SplineSet
-50 50 m 0
 -50 75 -27 99 -2 100 c 1
 80 100 136 121 174 144 c 1
 132 699 l 2
 132 708 131 715 131 721 c 0
 131 751 141 761 205 801 c 0
 212 801 217 799 217 790 c 2
 238 196 l 2
 238 190 239 184 239 178 c 0
 239 50 119 0 0 -0 c 1
 -25 1 -50 24 -50 50 c 0
EndSplineSet
Colour: ffda6b
EndChar

StartChar: _.mim.isol
Encoding: 65584 -1 48
GlifName: _.mim.isol
Width: 607
VWidth: 1304
GlyphClass: 1
UnlinkRmOvrlpSave: 1
Flags: HMW
LayerCount: 2
Fore
SplineSet
64 27 m 1
 65 135 120 201 230 226 c 1
 208 242 l 1
 277 411 l 2
 289 442 307 457 332 457 c 0
 389 457 438 433 480 384 c 0
 522 335 543 282 543 224 c 0
 543 214 543 207 542 202 c 2
 518 100 l 1
 465 113 397 120 316 120 c 0
 237 120 178 112 139 95 c 1
 158 -393 l 1
 96 -399 l 1
 64 27 l 1
270 232 m 1
 287 234 304 235 321 235 c 0
 375 235 429 229 484 216 c 1
 465 251 441 278 413 299 c 0
 385 320 358 331 331 332 c 0
 326 332 320 329 313 324 c 0
 306 319 302 312 299 304 c 2
 270 232 l 1
EndSplineSet
Colour: ffda6b
EndChar

StartChar: _.mim.fina
Encoding: 65585 -1 49
GlifName: _.mim.fina
Width: 698
VWidth: 1304
GlyphClass: 1
UnlinkRmOvrlpSave: 1
Flags: HMW
LayerCount: 2
Fore
SplineSet
64 74 m 1
 62 283 244 326 442 330 c 1
 476 352 l 1
 496 248 l 1
 530 124 564 100 656 100 c 2
 694 100 l 1
 698 2 l 1
 656 2 l 2
 607 2 539 12 492 54 c 1
 448 -13 387 -45 332 -45 c 0
 263 -45 204 7 204 107 c 0
 204 131 207 158 215 188 c 1
 185 176 160 161 139 141 c 1
 156 -376 l 1
 96 -382 l 1
 64 74 l 1
280 141 m 0
 280 86 308 61 346 61 c 0
 378 61 416 78 451 110 c 1
 422 230 l 1
 385 229 339 224 292 213 c 1
 284 185 280 161 280 141 c 0
EndSplineSet
Colour: ffda6b
EndChar

StartChar: _.mim.medi
Encoding: 65586 -1 50
GlifName: _.mim.medi
Width: 692
VWidth: 1304
GlyphClass: 1
UnlinkRmOvrlpSave: 1
Flags: HMW
LayerCount: 2
Fore
SplineSet
692 -0 m 1
 603 0 548 18 500 55 c 1
 464 -19 420 -47 373 -47 c 0
 310 -47 239 4 167 63 c 1
 130 29 78 0 -1 -0 c 1
 -25 1 -50 24 -50 49 c 0
 -50 75 -28 99 -2 100 c 1
 181 100 191 192 259 289 c 0
 281 321 301 334 322 334 c 0
 398 334 473 157 590 111 c 0
 617 104 650 100 692 100 c 1
 692 -0 l 1
228 143 m 1
 272 107 331 55 383 55 c 0
 408 55 432 67 451 100 c 1
 395 157 353 222 310 222 c 0
 302 222 294 220 286 215 c 0
 265 201 249 175 228 143 c 1
EndSplineSet
Colour: ffda6b
EndChar

StartChar: _.mim.init
Encoding: 65587 -1 51
GlifName: _.mim.init
Width: 592
VWidth: 1304
GlyphClass: 1
UnlinkRmOvrlpSave: 1
Flags: HMW
LayerCount: 2
Fore
SplineSet
-50 50 m 0
 -50 76 -26 100 -1 100 c 0
 153 100 162 152 264 338 c 0
 287 379 317 397 348 397 c 0
 433 397 528 269 528 146 c 0
 528 100 518 81 500 45 c 0
 484 12 451 0 413 -0 c 0
 332 0 227 55 194 84 c 1
 160 32 111 0 11 -0 c 0
 7 0 3 0 -1 -0 c 0
 -26 0 -50 24 -50 50 c 0
245 177 m 1
 305 136 367 108 425 108 c 0
 439 108 452 110 465 113 c 1
 443 206 368 281 322 281 c 0
 310 281 299 276 292 264 c 0
 272 233 257 204 245 177 c 1
EndSplineSet
Colour: ffda6b
EndChar

StartChar: _.nun.isol
Encoding: 65588 -1 52
GlifName: _.nun.isol
Width: 750
VWidth: 1305
GlyphClass: 1
UnlinkRmOvrlpSave: 1
Flags: HMW
LayerCount: 2
Fore
SplineSet
64 -51 m 0
 64 30 88 127 135 240 c 1
 185 219 l 1
 150 122 133 41 133 -23 c 0
 133 -141 194 -200 317 -200 c 0
 376 -200 436 -187 498 -162 c 0
 560 -137 600 -113 619 -90 c 1
 568 234 l 1
 645 299 l 1
 648 276 653 247 659 210 c 0
 665 173 670 143 673 122 c 0
 676 101 679 78 682 50 c 0
 685 22 686 -3 686 -25 c 0
 686 -27 686 -31 686 -36 c 0
 686 -41 685 -45 685 -47 c 0
 684 -92 664 -134 626 -174 c 0
 588 -214 540 -246 484 -268 c 0
 428 -290 372 -301 315 -301 c 0
 242 -301 182 -281 135 -240 c 0
 88 -199 64 -136 64 -51 c 0
EndSplineSet
Colour: ffda6b
EndChar

StartChar: _.nun.fina
Encoding: 65589 -1 53
GlifName: _.nun.fina
Width: 825
VWidth: 1413
GlyphClass: 1
UnlinkRmOvrlpSave: 1
Flags: HMW
LayerCount: 2
Fore
SplineSet
64 -42 m 0
 64 33 85 126 134 240 c 1
 185 219 l 1
 149 132 133 60 133 3 c 0
 133 -141 232 -197 345 -197 c 0
 443 -197 552 -155 619 -90 c 1
 568 234 l 1
 644 299 l 1
 654 236 663 182 670 133 c 1
 707 115 757 100 825 100 c 1
 825 -0 l 1
 775 0 724 8 682 29 c 1
 683 7 685 -16 685 -38 c 0
 685 -192 498 -301 330 -301 c 0
 191 -301 64 -227 64 -42 c 0
EndSplineSet
Colour: ffda6b
EndChar

StartChar: _.vav.isol
Encoding: 65590 -1 54
GlifName: _.vav.isol
Width: 542
VWidth: 1304
GlyphClass: 1
UnlinkRmOvrlpSave: 1
Flags: HMW
LayerCount: 2
Fore
SplineSet
64 -229 m 0
 64 -225 68 -222 77 -221 c 1
 263 -174 347 -87 379 -35 c 0
 388 -21 392 -5 397 13 c 1
 369 4 336 0 294 -0 c 0
 197 0 167 54 167 115 c 0
 167 123 167 132 168 140 c 0
 170 220 225 369 316 369 c 0
 420 369 478 215 478 82 c 0
 478 65 477 48 475 32 c 1
 470 -82 370 -262 168 -301 c 1
 146 -301 64 -249 64 -229 c 0
401 114 m 1
 391 188 355 267 298 267 c 0
 271 267 238 222 225 178 c 1
 168 140 l 1
 225 178 l 1
 223 168 222 160 222 153 c 0
 222 103 262 100 296 100 c 0
 330 100 369 104 401 114 c 1
EndSplineSet
Colour: ffda6b
EndChar

StartChar: _.vav.fina
Encoding: 65591 -1 55
GlifName: _.vav.fina
Width: 608
VWidth: 1304
GlyphClass: 1
UnlinkRmOvrlpSave: 1
Flags: HMW
LayerCount: 2
Fore
SplineSet
402 100 m 1
 395 180 360 267 298 267 c 0
 271 267 238 222 225 178 c 1
 168 140 l 1
 225 178 l 1
 223 168 222 160 222 152 c 0
 222 100 266 100 301 100 c 1
 294 -0 l 1
 197 0 167 54 167 115 c 0
 167 123 167 132 168 140 c 0
 170 220 225 369 316 369 c 0
 414 369 472 228 477 100 c 1
 608 100 l 1
 608 -0 l 1
 471 -0 l 1
 451 -113 351 -265 168 -301 c 1
 146 -301 64 -249 64 -229 c 0
 64 -225 68 -222 77 -221 c 1
 302 -163 378 -48 394 -6 c 1
 394 -0 l 1
 294 -0 l 1
 301 100 l 1
 402 100 l 1
EndSplineSet
Colour: ffda6b
EndChar

StartChar: _.dal.isol
Encoding: 65592 -1 56
GlifName: _.dal.isol
Width: 513
VWidth: 1304
GlyphClass: 1
UnlinkRmOvrlpSave: 1
Flags: HMW
LayerCount: 2
Fore
SplineSet
449 183 m 0
 449 52 333 0 210 -0 c 0
 87 0 64 53 64 151 c 0
 64 171 76 180 87 180 c 0
 95 180 102 175 103 165 c 0
 102 100 166 100 213 100 c 0
 294 100 350 121 387 144 c 1
 387 146 387 148 387 151 c 0
 387 191 356 289 198 422 c 1
 226 522 l 1
 408 382 449 260 449 183 c 0
EndSplineSet
Colour: ffda6b
EndChar

StartChar: _.dal.fina
Encoding: 65593 -1 57
GlifName: _.dal.fina
Width: 629
VWidth: 1304
GlyphClass: 1
UnlinkRmOvrlpSave: 1
Flags: HMW
LayerCount: 2
Fore
SplineSet
64 151 m 0
 64 171 76 180 87 180 c 0
 95 180 102 175 103 165 c 0
 102 100 166 100 213 100 c 0
 292 100 346 119 383 141 c 1
 350 211 316 309 256 443 c 1
 332 507 l 1
 474 162 463 100 629 100 c 1
 629 -0 l 1
 516 0 462 24 419 81 c 1
 376 24 292 0 210 -0 c 0
 87 0 64 53 64 151 c 0
EndSplineSet
Colour: ffda6b
EndChar

StartChar: _.ree.isol
Encoding: 65594 -1 58
GlifName: _.ree.isol
Width: 539
VWidth: 1304
GlyphClass: 1
UnlinkRmOvrlpSave: 1
Flags: HMW
LayerCount: 2
Fore
SplineSet
64 -229 m 0
 64 -225 68 -222 77 -221 c 1
 315 -161 386 -36 395 -0 c 0
 399 14 401 24 401 36 c 0
 401 68 384 109 332 235 c 1
 408 300 l 1
 474 117 474 71 474 40 c 1
 475 40 l 1
 475 -74 375 -260 168 -301 c 1
 146 -301 64 -249 64 -229 c 0
EndSplineSet
Colour: ffda6b
EndChar

StartChar: _.ree.fina
Encoding: 65595 -1 59
GlifName: _.ree.fina
Width: 610
VWidth: 1304
GlyphClass: 1
UnlinkRmOvrlpSave: 1
Flags: HMW
LayerCount: 2
Fore
SplineSet
64 -229 m 0
 64 -225 68 -222 77 -221 c 1
 315 -161 386 -36 395 -0 c 0
 399 14 401 24 401 36 c 0
 401 68 384 109 332 235 c 1
 408 300 l 1
 440 211 457 163 466 127 c 1
 502 112 548 100 610 100 c 1
 610 -0 l 1
 562 0 514 8 475 26 c 1
 466 -88 366 -263 168 -301 c 1
 146 -301 64 -249 64 -229 c 0
EndSplineSet
Colour: ffda6b
EndChar

StartChar: _.he8.isol
Encoding: 65596 -1 60
GlifName: _.he8.isol
Width: 471
VWidth: 1304
GlyphClass: 1
UnlinkRmOvrlpSave: 1
Flags: HMW
LayerCount: 2
Fore
SplineSet
237 -0 m 1
 230 0 224 0 217 -0 c 1
 217 1 l 1
 113 7 64 61 64 141 c 0
 64 184 78 234 105 289 c 2
 154 388 l 1
 124 415 l 1
 173 502 l 1
 392 318 407 244 407 180 c 0
 407 174 407 168 407 162 c 0
 407 73 345 7 237 1 c 1
 237 -0 l 1
126 176 m 0
 126 139 148 103 237 100 c 1
 294 102 351 126 351 163 c 0
 351 203 300 258 195 352 c 1
 146 247 l 2
 140 233 126 205 126 176 c 0
EndSplineSet
Colour: ffda6b
EndChar

StartChar: _.he8.fina
Encoding: 65597 -1 61
GlifName: _.he8.fina
Width: 526
VWidth: 1304
GlyphClass: 1
UnlinkRmOvrlpSave: 1
Flags: HMW
LayerCount: 2
Fore
SplineSet
64 220 m 0
 64 259 81 303 110 337 c 0
 138 369 176 389 270 457 c 1
 264 513 l 1
 340 577 l 1
 384 200 l 1
 391 158 386 100 526 100 c 1
 526 -0 l 1
 405 0 328 41 313 122 c 1
 287 112 251 106 214 106 c 0
 194 106 174 108 155 112 c 0
 91 125 64 169 64 220 c 0
134 247 m 0
 134 219 174 214 213 214 c 0
 243 214 275 217 299 223 c 1
 281 374 l 1
 227 340 177 301 155 283 c 0
 142 272 134 259 134 247 c 0
EndSplineSet
Colour: ffda6b
EndChar

StartChar: _.he8.medi
Encoding: 65598 -1 62
GlifName: _.he8.medi
Width: 515
VWidth: 1304
GlyphClass: 1
UnlinkRmOvrlpSave: 1
Flags: HMW
LayerCount: 2
Fore
SplineSet
-50 50 m 0
 -50 75 -27 99 -2 100 c 1
 78 100 l 1
 76 117 75 134 75 151 c 0
 75 273 121 391 204 452 c 1
 287 412 328 322 328 233 c 0
 328 134 276 35 174 7 c 1
 197 -32 229 -69 270 -99 c 1
 263 -81 259 -63 259 -46 c 0
 259 34 329 100 369 100 c 2
 515 100 l 1
 515 -0 l 1
 372 -0 l 2
 358 0 324 -24 324 -59 c 0
 324 -87 345 -123 414 -160 c 1
 369 -243 l 1
 226 -210 139 -113 100 -0 c 1
 -2 -0 l 1
 -27 1 -50 24 -50 50 c 0
134 157 m 0
 134 138 136 120 140 101 c 1
 239 109 284 159 284 213 c 0
 284 255 256 300 205 330 c 1
 158 286 134 223 134 157 c 0
EndSplineSet
Colour: ffda6b
EndChar

StartChar: _.he8.init
Encoding: 65599 -1 63
GlifName: _.he8.init
Width: 602
VWidth: 1304
GlyphClass: 1
UnlinkRmOvrlpSave: 1
Flags: HMW
LayerCount: 2
Fore
SplineSet
-50 50 m 0
 -50 76 -26 100 0 100 c 0
 47 100 93 108 132 120 c 1
 102 142 81 171 81 216 c 0
 81 231 84 249 89 268 c 1
 99 318 131 372 170 409 c 1
 200 516 l 1
 467 343 538 226 538 141 c 0
 538 94 515 54 495 26 c 0
 471 -4 445 -18 412 -18 c 0
 364 -18 304 12 220 63 c 1
 161 25 84 0 0 -0 c 1
 0 16 l 1
 0 -0 l 1
 -26 0 -50 24 -50 50 c 0
299 249 m 0
 299 290 289 354 233 354 c 0
 198 354 161 323 147 294 c 1
 145 287 144 280 144 274 c 0
 144 241 174 221 202 203 c 0
 218 193 233 183 248 173 c 1
 274 190 290 205 297 216 c 1
 298 222 299 234 299 249 c 0
360 271 m 1
 348 217 334 179 303 139 c 1
 362 101 408 76 453 76 c 0
 462 76 470 77 479 79 c 1
 479 82 480 84 480 87 c 0
 480 133 440 198 360 271 c 1
EndSplineSet
Colour: ffda6b
EndChar

StartChar: _.yeh.fina
Encoding: 65600 -1 64
GlifName: _.yeh.fina
Width: 797
VWidth: 1304
GlyphClass: 1
UnlinkRmOvrlpSave: 1
Flags: HMW
LayerCount: 2
Fore
SplineSet
64 -42 m 0
 64 33 84 126 134 240 c 1
 185 219 l 1
 149 132 133 60 133 3 c 0
 133 -141 232 -198 345 -198 c 0
 431 -198 525 -165 592 -113 c 0
 604 -103 610 -93 610 -82 c 0
 610 -29 480 26 413 54 c 0
 401 59 405 70 409 80 c 2
 421 111 l 2
 434 143 441 155 455 155 c 0
 459 155 463 154 468 152 c 0
 595 113 697 100 797 100 c 1
 797 -0 l 1
 737 0 688 6 642 13 c 1
 663 -14 676 -43 676 -75 c 0
 676 -84 675 -94 672 -104 c 1
 672 -105 l 1
 628 -223 473 -301 330 -301 c 0
 191 -301 64 -226 64 -42 c 0
EndSplineSet
Colour: ffda6b
EndChar

StartChar: _.yeh.isol
Encoding: 65601 -1 65
GlifName: _.yeh.isol
Width: 786
VWidth: 1304
GlyphClass: 1
UnlinkRmOvrlpSave: 1
Flags: HMW
LayerCount: 2
Fore
SplineSet
64 58 m 0
 64 133 85 226 134 340 c 1
 185 319 l 1
 149 232 133 161 133 104 c 0
 133 -40 231 -97 345 -97 c 0
 430 -97 524 -66 591 -15 c 0
 607 -3 614 10 614 21 c 0
 614 37 598 49 574 49 c 1
 385 70 l 2
 367 72 361 92 361 120 c 0
 361 127 361 134 362 141 c 0
 362 184 381 233 395 258 c 1
 462 408 590 454 704 454 c 0
 710 454 716 454 722 454 c 1
 685 349 l 1
 595 340 471 282 435 168 c 1
 600 150 l 2
 656 144 685 102 685 54 c 0
 685 36 680 16 672 -3 c 1
 672 -4 l 1
 628 -122 473 -201 330 -201 c 0
 191 -201 64 -126 64 58 c 0
EndSplineSet
Colour: ffda6b
EndChar

StartChar: _.hamze.isol
Encoding: 65602 -1 66
GlifName: _.hamze.isol
Width: 515
VWidth: 1304
GlyphClass: 2
Flags: HMW
LayerCount: 2
Fore
SplineSet
312 339 m 0
 277 339 244 330 213 314 c 0
 182 298 167 279 167 258 c 0
 167 221 193 187 246 157 c 1
 419 239 l 1
 451 170 l 1
 96 5 l 1
 64 74 l 1
 169 123 l 1
 125 153 103 193 103 243 c 0
 103 255 104 267 106 279 c 0
 113 317 132 350 164 377 c 0
 196 404 239 418 292 418 c 0
 314 418 336 416 359 411 c 1
 343 336 l 1
 333 338 323 339 312 339 c 0
EndSplineSet
Colour: ffda6b
EndChar

StartChar: _.keshide.medi
Encoding: 65603 -1 67
GlifName: _.keshide.medi
Width: 235
VWidth: 1304
GlyphClass: 2
Flags: HMW
LayerCount: 2
Fore
SplineSet
-12 100 m 2
 235 100 l 1
 235 0 l 1
 -12 0 l 2
 -24 0 -33 5 -40 15 c 0
 -47 25 -50 37 -50 50 c 0
 -50 63 -47 75 -40 85 c 0
 -33 95 -24 100 -12 100 c 2
EndSplineSet
Colour: ffda6b
EndChar

StartChar: _.dot.1u
Encoding: 65604 -1 68
GlifName: _.dot.1u
Width: 0
VWidth: 1304
GlyphClass: 2
Flags: HMW
LayerCount: 2
Fore
SplineSet
3 53 m 2
 43 106 l 2
 49 113 61 115 68 109 c 2
 119 70 l 2
 126 64 128 54 123 47 c 2
 82 -6 l 2
 77 -13 66 -15 59 -10 c 2
 7 29 l 2
 0 35 -3 46 3 53 c 2
EndSplineSet
Colour: ffda6b
EndChar

StartChar: _.dot.2u
Encoding: 65605 -1 69
GlifName: _.dot.2u
Width: 0
VWidth: 1304
GlyphClass: 2
UnlinkRmOvrlpSave: 1
Flags: HMW
LayerCount: 2
Fore
SplineSet
3 53 m 2
 43 106 l 2
 49 113 61 115 68 109 c 2
 119 70 l 2
 126 64 128 54 123 47 c 2
 82 -6 l 2
 77 -13 66 -15 59 -10 c 2
 7 29 l 2
 0 35 -3 46 3 53 c 2
164 53 m 2
 204 106 l 2
 209 113 221 115 228 109 c 2
 279 70 l 2
 286 64 288 54 283 47 c 2
 242 -6 l 2
 237 -13 226 -15 219 -10 c 2
 167 29 l 2
 160 35 158 46 164 53 c 2
EndSplineSet
Colour: ffda6b
EndChar

StartChar: _.dot.3u
Encoding: 65606 -1 70
GlifName: _.dot.3u
Width: 0
VWidth: 1304
GlyphClass: 2
UnlinkRmOvrlpSave: 1
Flags: HMW
LayerCount: 2
Fore
SplineSet
3 53 m 2
 43 106 l 2
 49 113 61 115 68 109 c 2
 119 70 l 2
 126 64 128 54 123 47 c 2
 82 -6 l 2
 77 -13 66 -15 59 -10 c 2
 7 29 l 2
 0 35 -3 46 3 53 c 2
81 175 m 2
 118 224 l 2
 123 231 133 232 140 226 c 2
 188 191 l 2
 195 185 197 174 192 168 c 2
 154 119 l 2
 149 112 139 111 132 116 c 2
 84 152 l 2
 78 157 75 168 81 175 c 2
164 53 m 2
 204 106 l 2
 209 113 221 115 228 109 c 2
 279 70 l 2
 286 64 288 54 283 47 c 2
 242 -6 l 2
 237 -13 226 -15 219 -10 c 2
 167 29 l 2
 160 35 158 46 164 53 c 2
EndSplineSet
Colour: ffda6b
EndChar

StartChar: _.dot.1d
Encoding: 65607 -1 71
GlifName: _.dot.1d
Width: 0
VWidth: 1304
GlyphClass: 2
Flags: HMW
LayerCount: 2
Fore
SplineSet
3 -57 m 2
 44 -4 l 2
 49 3 60 5 67 -0 c 2
 119 -40 l 2
 126 -46 127 -57 122 -64 c 2
 82 -117 l 2
 77 -124 65 -126 58 -120 c 2
 7 -80 l 2
 0 -75 -2 -64 3 -57 c 2
EndSplineSet
Colour: ffda6b
EndChar

StartChar: _.dot.2d
Encoding: 65608 -1 72
GlifName: _.dot.2d
Width: 0
VWidth: 1304
GlyphClass: 2
UnlinkRmOvrlpSave: 1
Flags: HMW
LayerCount: 2
Fore
SplineSet
3 -57 m 2
 44 -4 l 2
 49 3 60 5 67 -0 c 2
 119 -40 l 2
 126 -46 127 -57 122 -64 c 2
 82 -117 l 2
 77 -124 65 -126 58 -120 c 2
 7 -80 l 2
 0 -75 -2 -64 3 -57 c 2
163 -57 m 2
 204 -4 l 2
 209 3 220 5 227 -0 c 2
 279 -40 l 2
 286 -46 288 -57 282 -64 c 2
 242 -117 l 2
 237 -124 225 -126 218 -120 c 2
 167 -80 l 2
 160 -75 158 -64 163 -57 c 2
EndSplineSet
Colour: ffda6b
EndChar

StartChar: _.dot.3d
Encoding: 65609 -1 73
GlifName: _.dot.3d
Width: 0
VWidth: 1304
GlyphClass: 2
UnlinkRmOvrlpSave: 1
Flags: HMW
LayerCount: 2
Fore
SplineSet
3 -57 m 2
 44 -4 l 2
 49 3 60 5 67 -0 c 2
 119 -40 l 2
 126 -46 127 -57 122 -64 c 2
 82 -117 l 2
 77 -124 65 -126 58 -120 c 2
 7 -80 l 2
 0 -75 -2 -64 3 -57 c 2
90 -175 m 2
 127 -127 l 2
 132 -120 142 -118 149 -123 c 2
 197 -160 l 2
 204 -165 206 -175 201 -182 c 2
 164 -232 l 1
 158 -238 148 -239 142 -234 c 2
 93 -197 l 2
 87 -192 85 -182 90 -175 c 2
163 -57 m 2
 204 -4 l 2
 209 3 220 5 227 -0 c 2
 279 -40 l 2
 286 -46 288 -57 282 -64 c 2
 242 -117 l 2
 237 -124 225 -126 218 -120 c 2
 167 -80 l 2
 160 -75 158 -64 163 -57 c 2
EndSplineSet
Colour: ffda6b
EndChar

StartChar: _.num.0
Encoding: 65611 -1 75
GlifName: _.num.0
Width: 450
VWidth: 1424
GlyphClass: 2
Flags: HMW
LayerCount: 2
Fore
SplineSet
75 327 m 0
 75 368 90 402 120 432 c 0
 150 462 184 477 225 477 c 0
 266 477 300 462 330 432 c 0
 360 402 375 368 375 327 c 0
 375 286 360 252 330 222 c 0
 300 192 266 177 225 177 c 0
 184 177 150 192 120 222 c 0
 90 252 75 286 75 327 c 0
150 327 m 0
 150 306 157 289 172 274 c 0
 187 259 204 252 225 252 c 0
 246 252 263 259 278 274 c 0
 293 289 300 306 300 327 c 0
 300 348 293 365 278 380 c 0
 263 395 246 402 225 402 c 0
 204 402 187 395 172 380 c 0
 157 365 150 348 150 327 c 0
EndSplineSet
Colour: ffda6b
EndChar

StartChar: _.num.1
Encoding: 65612 -1 76
GlifName: _.num.1
Width: 350
VWidth: 1331
GlyphClass: 2
Flags: HMW
LayerCount: 2
Fore
SplineSet
75 699 m 1
 173 799 l 1
 214 680 242 561 255 444 c 0
 268 327 275 202 275 68 c 0
 275 60 274 49 274 34 c 0
 274 19 274 7 274 0 c 1
 173 -20 l 1
 172 61 172 120 171 154 c 0
 170 188 168 241 162 312 c 0
 156 383 146 450 132 511 c 0
 118 572 99 635 75 699 c 1
EndSplineSet
Colour: ffda6b
EndChar

StartChar: _.num.2
Encoding: 65613 -1 77
GlifName: _.num.2
Width: 629
VWidth: 1331
GlyphClass: 2
Flags: HMW
LayerCount: 2
Fore
SplineSet
75 699 m 1
 173 799 l 1
 199 726 220 647 236 562 c 1
 271 535 308 522 349 522 c 0
 381 522 408 530 430 546 c 0
 452 562 463 581 462 601 c 2
 455 752 l 1
 548 758 l 1
 554 614 l 2
 555 548 534 496 492 458 c 0
 450 420 401 401 343 401 c 0
 314 401 286 406 258 416 c 1
 269 307 275 191 275 66 c 0
 275 58 274 46 274 32 c 0
 274 18 274 7 274 0 c 1
 173 -20 l 1
 172 61 172 120 171 154 c 0
 170 188 168 241 162 312 c 0
 156 383 146 450 132 511 c 0
 118 572 99 635 75 699 c 1
EndSplineSet
Colour: ffda6b
EndChar

StartChar: _.num.3
Encoding: 65614 -1 78
GlifName: _.num.3
Width: 849
VWidth: 1331
GlyphClass: 2
Flags: HMW
LayerCount: 2
Fore
SplineSet
75 699 m 1
 173 799 l 1
 201 720 223 634 240 540 c 1
 265 528 291 522 318 522 c 0
 350 522 378 530 400 546 c 0
 422 562 432 581 431 601 c 2
 425 752 l 1
 517 758 l 1
 523 614 l 2
 523 589 521 568 516 551 c 1
 535 545 553 542 570 542 c 0
 602 542 629 550 651 566 c 0
 673 582 683 600 682 620 c 2
 676 772 l 1
 768 779 l 1
 774 634 l 2
 775 568 754 516 712 478 c 0
 670 440 621 421 563 421 c 0
 530 421 498 428 466 441 c 1
 446 444 l 1
 409 415 364 401 311 401 c 0
 290 401 272 403 258 406 c 1
 269 301 275 187 275 65 c 0
 275 58 274 47 274 32 c 0
 274 17 274 7 274 0 c 1
 173 -20 l 1
 172 61 172 120 171 154 c 0
 170 188 168 241 162 312 c 0
 156 383 146 450 132 511 c 0
 118 572 99 635 75 699 c 1
EndSplineSet
Colour: ffda6b
EndChar

StartChar: _.num.4.fa
Encoding: 65615 -1 79
GlifName: _.num.4.fa
Width: 741
VWidth: 1331
GlyphClass: 2
Flags: HMW
LayerCount: 2
Fore
SplineSet
75 699 m 1
 173 799 l 1
 206 705 230 604 247 496 c 1
 261 487 273 481 284 477 c 1
 272 513 266 550 266 589 c 0
 266 614 269 638 276 663 c 0
 289 708 312 742 346 764 c 0
 380 786 420 797 464 797 c 0
 498 797 531 790 562 778 c 0
 593 766 618 750 635 729 c 1
 608 652 l 1
 572 671 528 681 475 681 c 0
 428 681 390 671 361 652 c 0
 361 649 360 646 360 642 c 0
 360 638 360 635 360 632 c 0
 360 563 382 498 426 437 c 1
 433 436 442 436 455 436 c 0
 463 436 471 436 478 436 c 0
 485 436 494 438 502 439 c 0
 510 440 516 441 522 442 c 0
 528 443 536 446 545 448 c 0
 554 450 560 451 564 452 c 0
 568 453 576 456 586 459 c 0
 596 462 602 464 604 465 c 0
 606 466 612 468 624 472 c 0
 636 476 642 479 643 479 c 2
 666 379 l 1
 579 345 494 328 409 328 c 0
 356 328 308 335 265 348 c 1
 271 279 274 183 274 59 c 2
 274 -0 l 1
 173 -20 l 1
 172 61 172 120 171 154 c 0
 170 188 168 241 162 312 c 0
 156 383 146 450 132 511 c 0
 118 572 99 635 75 699 c 1
EndSplineSet
Colour: ffda6b
EndChar

StartChar: _.num.5.fa
Encoding: 65617 -1 81
GlifName: _.num.5.fa
Width: 742
VWidth: 1331
GlyphClass: 2
Flags: HMW
LayerCount: 2
Fore
SplineSet
227 -7 m 0
 184 -7 148 8 119 38 c 0
 90 68 75 110 75 162 c 0
 75 179 78 199 82 222 c 0
 86 245 94 278 106 320 c 0
 118 362 141 414 173 472 c 0
 205 530 244 590 291 652 c 1
 368 593 l 1
 244 425 182 295 182 204 c 0
 182 177 188 157 199 143 c 0
 210 129 224 122 241 122 c 0
 263 122 284 132 302 154 c 0
 320 176 329 204 329 238 c 2
 329 251 l 1
 414 273 l 1
 414 268 l 2
 414 239 416 214 421 191 c 0
 425 172 436 157 453 146 c 0
 470 135 489 129 509 129 c 0
 550 129 570 148 570 185 c 0
 570 200 568 217 566 236 c 0
 564 255 556 285 542 324 c 0
 528 363 510 402 488 440 c 0
 466 478 432 521 386 569 c 0
 340 617 285 662 222 703 c 1
 283 800 l 1
 288 797 295 792 304 786 c 0
 313 780 331 767 357 746 c 0
 383 725 408 703 432 680 c 0
 456 657 482 628 511 591 c 0
 540 554 566 516 587 478 c 0
 608 440 627 395 642 344 c 0
 657 293 666 241 667 188 c 0
 667 184 667 184 667 178 c 0
 667 174 666 165 664 152 c 0
 662 139 661 127 658 116 c 0
 655 105 650 92 644 78 c 0
 638 64 631 51 622 40 c 0
 613 29 602 20 588 12 c 0
 574 4 557 1 539 0 c 0
 534 0 527 0 517 -1 c 0
 507 -2 499 -2 493 -2 c 0
 429 -2 387 25 366 80 c 1
 351 51 331 30 306 15 c 0
 281 0 255 -7 227 -7 c 0
EndSplineSet
Colour: ffda6b
EndChar

StartChar: _.num.6.fa
Encoding: 65619 -1 83
GlifName: _.num.6.fa
Width: 801
VWidth: 1331
GlyphClass: 2
Flags: HMW
LayerCount: 2
Fore
SplineSet
75 42 m 1
 205 163 308 253 385 311 c 1
 342 335 307 372 278 423 c 0
 249 474 234 520 234 562 c 2
 234 571 l 1
 239 646 268 702 319 739 c 0
 370 776 436 795 517 795 c 0
 570 795 623 788 678 773 c 1
 663 681 l 1
 649 684 631 685 609 685 c 0
 550 685 494 675 438 655 c 0
 382 635 347 608 334 575 c 1
 372 480 421 414 481 379 c 1
 568 436 649 482 726 516 c 1
 721 375 l 1
 670 354 620 329 570 300 c 0
 520 271 480 246 447 224 c 0
 414 202 375 170 328 131 c 0
 281 92 249 63 230 46 c 0
 211 29 177 -2 130 -47 c 1
 75 42 l 1
EndSplineSet
Colour: ffda6b
EndChar

StartChar: _.num.7
Encoding: 65621 -1 85
GlifName: _.num.7
Width: 750
VWidth: 1331
GlyphClass: 2
Flags: HMW
LayerCount: 2
Fore
SplineSet
75 699 m 1
 173 799 l 1
 258 627 325 455 375 282 c 1
 422 449 489 622 576 799 c 1
 675 699 l 1
 636 620 605 558 582 510 c 0
 559 462 535 405 508 340 c 0
 481 275 462 214 449 159 c 0
 436 104 429 51 427 0 c 1
 324 -20 l 1
 324 48 311 126 284 213 c 0
 257 300 230 375 201 438 c 0
 172 501 130 588 75 699 c 1
EndSplineSet
Colour: ffda6b
EndChar

StartChar: _.num.8
Encoding: 65622 -1 86
GlifName: _.num.8
Width: 751
VWidth: 1331
GlyphClass: 2
Flags: HMW
LayerCount: 2
Fore
SplineSet
75 80 m 1
 151 192 213 312 260 439 c 0
 307 566 331 680 334 779 c 1
 417 799 l 1
 416 699 440 584 487 452 c 0
 534 320 597 196 676 80 c 1
 577 -20 l 1
 488 131 420 307 375 506 c 1
 330 307 262 131 173 -20 c 1
 75 80 l 1
EndSplineSet
Colour: ffda6b
EndChar

StartChar: _.num.9
Encoding: 65623 -1 87
GlifName: _.num.9
Width: 606
VWidth: 1331
GlyphClass: 2
Flags: HMW
LayerCount: 2
Fore
SplineSet
441 500 m 2
 441 487 l 2
 442 482 444 466 447 442 c 0
 450 418 452 401 453 391 c 0
 469 281 495 177 531 80 c 1
 432 -20 l 1
 391 101 362 233 346 378 c 1
 320 373 294 370 268 370 c 0
 203 370 155 387 123 422 c 0
 91 457 75 502 75 555 c 0
 75 616 94 673 130 724 c 0
 166 775 210 800 262 800 c 0
 312 800 354 774 388 722 c 0
 422 670 440 596 441 500 c 2
174 568 m 0
 174 543 182 522 196 506 c 0
 210 490 232 482 261 482 c 0
 283 482 308 487 335 496 c 1
 336 499 336 504 336 511 c 0
 336 516 336 522 336 532 c 0
 336 542 335 549 334 554 c 0
 330 595 320 627 304 648 c 0
 288 669 268 679 246 679 c 0
 227 679 211 667 196 644 c 0
 181 621 174 595 174 568 c 0
EndSplineSet
Colour: ffda6b
EndChar

StartChar: _.sing.backslash
Encoding: 65624 -1 88
GlifName: _.sing.backslash
Width: 442
VWidth: 1197
GlyphClass: 2
Flags: HMW
LayerCount: 2
Fore
SplineSet
50 720 m 1
 151 720 l 1
 392 -14 l 1
 290 -14 l 1
 50 720 l 1
EndSplineSet
Colour: ffda6b
EndChar

StartChar: _.sing.slash
Encoding: 65625 -1 89
GlifName: _.sing.slash
Width: 442
VWidth: 1197
GlyphClass: 2
Flags: HMW
LayerCount: 2
Fore
SplineSet
50 -14 m 1
 290 720 l 1
 392 720 l 1
 151 -14 l 1
 50 -14 l 1
EndSplineSet
Colour: ffda6b
EndChar

StartChar: _.sing.tajob
Encoding: 65626 -1 90
GlifName: _.sing.tajob
Width: 255
VWidth: 1197
GlyphClass: 2
Flags: HMW
LayerCount: 2
Fore
SplineSet
50 81 m 1
 128 159 l 1
 205 81 l 1
 128 5 l 1
 50 81 l 1
77 756 m 1
 177 756 l 1
 161 220 l 1
 94 220 l 1
 77 756 l 1
EndSplineSet
Colour: ffda6b
EndChar

StartChar: _.sing.soal
Encoding: 65627 -1 91
GlifName: _.sing.soal
Width: 460
VWidth: 1304
GlyphClass: 2
Flags: HMW
LayerCount: 2
Fore
SplineSet
229 759 m 0
 294 759 340 740 368 701 c 0
 396 662 410 607 410 535 c 2
 410 503 l 1
 333 503 l 1
 333 535 l 2
 333 630 298 677 229 677 c 0
 190 677 160 657 139 617 c 0
 133 603 130 589 130 575 c 0
 130 548 142 519 166 487 c 0
 171 480 178 472 187 460 c 0
 196 448 204 436 212 426 c 0
 220 416 227 406 232 396 c 0
 256 351 268 304 268 255 c 2
 268 215 l 1
 202 215 l 1
 202 242 l 2
 202 300 177 356 127 410 c 0
 123 415 116 424 108 434 c 0
 100 444 94 452 90 457 c 0
 63 495 50 533 50 570 c 2
 50 579 l 2
 50 626 66 667 98 702 c 0
 129 740 173 759 229 759 c 0
157 77 m 1
 235 155 l 1
 312 77 l 1
 235 -0 l 1
 157 77 l 1
EndSplineSet
Colour: ffda6b
EndChar

StartChar: _.sing.beezafeh
Encoding: 65628 -1 92
GlifName: _.sing.beezafeh
Width: 494
VWidth: 1352
GlyphClass: 2
Flags: HMW
LayerCount: 2
Fore
SplineSet
50 263 m 1
 50 335 l 1
 211 335 l 1
 211 495 l 1
 283 495 l 1
 283 335 l 1
 444 335 l 1
 444 263 l 1
 283 263 l 1
 283 103 l 1
 211 103 l 1
 211 263 l 1
 50 263 l 1
EndSplineSet
Colour: ffda6b
EndChar

StartChar: _.sing.menha
Encoding: 65629 -1 93
GlifName: _.sing.menha
Width: 487
VWidth: 0
GlyphClass: 2
Flags: HMW
LayerCount: 2
Fore
SplineSet
50 215 m 1
 50 287 l 1
 437 287 l 1
 437 215 l 1
 50 215 l 1
243 58 m 0
 230 58 218 63 209 72 c 0
 200 81 195 93 195 106 c 0
 195 119 200 131 209 140 c 0
 218 149 230 154 243 154 c 0
 256 154 268 150 278 140 c 0
 288 130 293 119 293 106 c 0
 293 93 288 81 278 72 c 0
 268 63 256 58 243 58 c 0
243 348 m 0
 230 348 218 353 209 362 c 0
 200 371 195 383 195 396 c 0
 195 409 200 421 209 430 c 0
 218 439 230 444 243 444 c 0
 256 444 268 440 278 430 c 0
 288 420 293 409 293 396 c 0
 293 383 288 372 278 362 c 0
 268 352 256 348 243 348 c 0
EndSplineSet
Colour: ffda6b
EndChar

StartChar: _.sing.virgul
Encoding: 65631 -1 95
GlifName: _.sing.virgul
Width: 258
VWidth: 1197
GlyphClass: 2
Flags: HMW
LayerCount: 2
Fore
SplineSet
130 103 m 1
 127 106 120 112 109 122 c 0
 98 132 90 141 86 146 c 0
 82 151 75 159 68 169 c 0
 61 179 57 189 54 200 c 0
 51 211 50 223 50 236 c 0
 51 264 61 294 80 326 c 0
 96 355 118 383 147 410 c 1
 195 362 l 1
 192 360 186 353 176 341 c 0
 149 314 136 290 136 269 c 0
 136 262 138 256 141 250 c 0
 144 244 148 238 152 234 c 0
 156 230 160 226 167 220 c 0
 174 214 178 210 180 208 c 0
 183 205 187 201 194 195 c 0
 201 189 205 185 208 182 c 1
 130 103 l 1
EndSplineSet
Colour: ffda6b
EndChar

StartChar: _.sing.dot_virgul
Encoding: 65632 -1 96
GlifName: _.sing.dot_virgul
Width: 256
VWidth: 1304
GlyphClass: 2
Flags: HMW
LayerCount: 2
Fore
SplineSet
129 210 m 1
 126 213 119 220 108 230 c 0
 97 240 90 247 86 252 c 0
 82 257 75 265 68 275 c 0
 61 285 57 295 54 306 c 0
 51 317 50 330 50 343 c 0
 52 400 84 458 147 517 c 1
 194 469 l 1
 167 442 149 419 142 402 c 0
 138 395 136 388 136 380 c 0
 134 366 139 353 152 340 c 0
 165 329 183 312 206 289 c 1
 129 210 l 1
51 66 m 1
 129 144 l 1
 206 66 l 1
 129 -11 l 1
 51 66 l 1
EndSplineSet
Colour: ffda6b
EndChar

StartChar: _.sing.2noqte
Encoding: 65633 -1 97
GlifName: _.sing.2noqte
Width: 255
VWidth: 1352
GlyphClass: 2
Flags: HMW
LayerCount: 2
Fore
SplineSet
50 106 m 1
 128 183 l 1
 205 106 l 1
 128 29 l 1
 50 106 l 1
50 327 m 1
 128 406 l 1
 205 327 l 1
 128 250 l 1
 50 327 l 1
EndSplineSet
Colour: ffda6b
EndChar

StartChar: _.sing.noqte
Encoding: 65634 -1 98
GlifName: _.sing.noqte
Width: 254
VWidth: 1352
GlyphClass: 2
Flags: HMW
LayerCount: 2
Fore
SplineSet
50 136 m 1
 128 214 l 1
 204 136 l 1
 128 59 l 1
 50 136 l 1
EndSplineSet
Colour: ffda6b
EndChar

StartChar: _.sing.gheiomeh.right
Encoding: 65635 -1 99
GlifName: _.sing.gheiomeh.right
Width: 425
VWidth: 1352
GlyphClass: 2
Flags: HMW
LayerCount: 2
Fore
SplineSet
172 -48 m 1
 91 49 50 145 50 241 c 0
 50 291 61 340 82 389 c 0
 104 439 134 486 172 529 c 1
 226 484 l 1
 163 412 132 331 132 241 c 0
 132 152 163 71 226 -1 c 1
 172 -48 l 1
326 -40 m 1
 289 5 262 49 242 92 c 0
 222 135 212 185 212 241 c 0
 212 297 222 347 242 390 c 0
 262 433 290 477 326 521 c 1
 375 480 l 1
 346 444 323 407 308 370 c 0
 293 333 286 290 286 241 c 0
 286 152 316 72 375 2 c 1
 326 -40 l 1
EndSplineSet
Colour: ffda6b
EndChar

StartChar: _.sing.gheiomeh.left
Encoding: 65636 -1 100
GlifName: _.sing.gheiomeh.left
Width: 426
VWidth: 1352
GlyphClass: 2
Flags: HMW
LayerCount: 2
Fore
SplineSet
139 241 m 0
 139 290 131 333 116 370 c 0
 101 407 79 444 50 480 c 1
 99 521 l 1
 135 478 163 433 184 385 c 0
 204 339 214 291 214 241 c 0
 214 186 204 136 184 92 c 0
 164 48 136 5 99 -40 c 1
 50 2 l 1
 109 72 139 152 139 241 c 0
199 -3 m 1
 262 72 294 154 294 241 c 0
 294 282 286 323 270 364 c 0
 254 408 230 448 199 484 c 1
 253 529 l 1
 291 486 321 439 343 389 c 0
 365 341 376 292 376 241 c 0
 376 191 365 141 343 92 c 0
 322 45 292 -1 253 -48 c 1
 199 -3 l 1
EndSplineSet
Colour: ffda6b
EndChar

StartChar: _.sing.parantez.right
Encoding: 65637 -1 101
GlifName: _.sing.parantez.right
Width: 309
VWidth: 1352
GlyphClass: 2
Flags: HMW
LayerCount: 2
Fore
SplineSet
259 665 m 1
 220 608 189 551 167 494 c 0
 145 437 134 372 134 299 c 0
 134 172 176 51 259 -65 c 1
 201 -106 l 1
 138 -19 92 77 65 183 c 0
 55 221 50 260 50 299 c 0
 50 364 67 440 102 525 c 0
 130 590 163 650 201 705 c 1
 259 665 l 1
EndSplineSet
Colour: ffda6b
EndChar

StartChar: _.sing.parantez.left
Encoding: 65638 -1 102
GlifName: _.sing.parantez.left
Width: 309
VWidth: 1352
GlyphClass: 2
Flags: HMW
LayerCount: 2
Fore
SplineSet
176 299 m 0
 176 372 164 437 142 494 c 0
 120 551 89 608 50 665 c 1
 108 705 l 2
 109 704 116 694 129 673 c 0
 142 652 153 636 160 624 c 0
 200 553 228 483 245 416 c 0
 254 379 259 340 259 299 c 0
 259 230 242 155 208 74 c 0
 183 15 149 -45 108 -106 c 1
 50 -65 l 1
 111 20 150 108 167 199 c 0
 173 231 176 264 176 299 c 0
EndSplineSet
Colour: ffda6b
EndChar

StartChar: _.sing.koroshe.right
Encoding: 65641 -1 105
GlifName: _.sing.koroshe.right
Width: 276
VWidth: 1197
GlyphClass: 2
Flags: HMW
LayerCount: 2
Fore
SplineSet
50 -57 m 1
 50 795 l 1
 226 795 l 1
 226 725 l 1
 120 725 l 1
 120 13 l 1
 226 13 l 1
 226 -57 l 1
 50 -57 l 1
EndSplineSet
Colour: ffda6b
EndChar

StartChar: _.sing.koroshe.left
Encoding: 65642 -1 106
GlifName: _.sing.koroshe.left
Width: 276
VWidth: 1197
GlyphClass: 2
Flags: HMW
LayerCount: 2
Fore
SplineSet
50 13 m 1
 156 13 l 1
 156 725 l 1
 50 725 l 1
 50 795 l 1
 226 795 l 1
 226 -57 l 1
 50 -57 l 1
 50 13 l 1
EndSplineSet
Colour: ffda6b
EndChar

StartChar: _.sing.akolad.right
Encoding: 65643 -1 107
GlifName: _.sing.akolad.right
Width: 327
VWidth: 1197
GlyphClass: 2
Flags: HMW
LayerCount: 2
Fore
SplineSet
245 -125 m 2
 206 -125 177 -115 160 -96 c 0
 143 -77 133 -48 131 -9 c 0
 131 -2 130 10 130 26 c 0
 130 42 130 54 130 63 c 2
 130 132 l 1
 126 221 99 266 50 266 c 1
 50 336 l 1
 71 336 88 343 100 358 c 0
 112 373 120 390 123 407 c 0
 126 424 129 446 130 471 c 2
 130 540 l 2
 130 549 130 561 130 577 c 0
 130 593 131 605 131 612 c 0
 133 651 143 680 160 699 c 0
 177 718 206 727 245 727 c 2
 277 727 l 1
 277 657 l 1
 263 657 l 2
 240 657 223 651 213 640 c 0
 203 629 198 611 198 587 c 0
 197 566 196 546 196 528 c 0
 196 504 196 485 196 470 c 0
 196 455 194 436 191 415 c 0
 188 394 185 377 180 364 c 0
 175 351 168 338 159 326 c 0
 150 314 138 306 125 301 c 1
 142 295 155 285 165 270 c 0
 175 255 182 236 186 212 c 0
 190 188 193 168 194 149 c 0
 195 130 196 106 196 75 c 0
 196 57 197 37 198 16 c 0
 198 -8 203 -26 213 -37 c 0
 223 -48 240 -54 263 -54 c 2
 277 -54 l 1
 277 -125 l 1
 245 -125 l 2
EndSplineSet
Colour: ffda6b
EndChar

StartChar: _.sing.akolad.left
Encoding: 65644 -1 108
GlifName: _.sing.akolad.left
Width: 327
VWidth: 1197
GlyphClass: 2
Flags: HMW
LayerCount: 2
Fore
SplineSet
194 -9 m 0
 194 -86 157 -125 82 -125 c 2
 50 -125 l 1
 50 -54 l 1
 62 -54 l 2
 86 -54 103 -49 112 -38 c 0
 121 -27 127 -9 129 16 c 0
 129 21 130 30 130 43 c 0
 130 56 130 67 130 75 c 0
 130 100 130 120 130 134 c 0
 130 148 132 166 135 188 c 0
 138 210 141 226 146 239 c 0
 151 252 158 264 167 276 c 0
 176 288 188 296 201 301 c 1
 188 306 176 314 167 326 c 0
 158 338 151 350 146 363 c 0
 141 376 138 392 135 414 c 0
 132 436 130 454 130 468 c 0
 130 482 130 503 130 528 c 0
 130 536 130 547 130 560 c 0
 130 573 129 582 129 587 c 0
 127 612 121 630 112 641 c 0
 103 652 86 657 62 657 c 2
 50 657 l 1
 50 727 l 1
 82 727 l 2
 157 727 194 689 194 612 c 0
 195 597 195 573 195 540 c 0
 195 464 200 413 210 387 c 0
 223 353 245 336 277 336 c 1
 277 266 l 1
 240 266 216 243 205 197 c 0
 199 173 196 151 196 130 c 0
 195 115 195 92 195 63 c 0
 195 30 195 6 194 -9 c 0
EndSplineSet
Colour: ffda6b
EndChar

StartChar: _.mark.maad
Encoding: 65645 -1 109
GlifName: _.mark.maad
Width: 0
VWidth: 1352
GlyphClass: 2
Flags: HMW
LayerCount: 2
Fore
SplineSet
0 26 m 1
 32 92 l 2
 45 123 64 138 89 138 c 0
 95 138 101 137 107 135 c 0
 141 125 179 120 221 120 c 0
 244 120 264 121 282 124 c 0
 292 126 306 130 323 136 c 0
 340 142 352 146 359 148 c 1
 366 74 l 1
 324 59 298 51 288 50 c 0
 261 47 237 45 216 45 c 0
 167 45 124 52 86 65 c 1
 82 57 76 46 68 30 c 0
 60 14 56 4 54 0 c 1
 0 26 l 1
EndSplineSet
Colour: ffda6b
EndChar

StartChar: _.mark.fatheh
Encoding: 65646 -1 110
GlifName: _.mark.fatheh
Width: 0
VWidth: 2310
GlyphClass: 2
Flags: HMW
LayerCount: 2
Fore
SplineSet
0 45 m 1
 256 165 l 1
 278 114 l 1
 23 -5 l 1
 0 45 l 1
EndSplineSet
Colour: ffda6b
EndChar

StartChar: _.mark.kasreh
Encoding: 65647 -1 111
GlifName: _.mark.kasreh
Width: 0
VWidth: 2384
GlyphClass: 2
Flags: HMW
LayerCount: 2
Fore
SplineSet
0 -125 m 1
 256 -6 l 1
 278 -56 l 1
 23 -175 l 1
 0 -125 l 1
EndSplineSet
Colour: ffda6b
EndChar

StartChar: _.mark.zameh
Encoding: 65648 -1 112
GlifName: _.mark.zameh
Width: 0
VWidth: 2277
GlyphClass: 2
Flags: HMW
LayerCount: 2
Fore
SplineSet
203 280 m 1
 247 275 272 247 279 194 c 1
 279 139 250 99 193 74 c 2
 23 -5 l 1
 0 44 l 1
 177 127 l 2
 192 134 204 142 212 151 c 0
 220 160 225 172 225 188 c 0
 225 196 222 203 216 210 c 0
 210 217 203 221 195 221 c 0
 185 221 176 218 169 212 c 0
 162 206 158 197 158 188 c 0
 158 183 159 179 160 175 c 0
 161 171 161 168 162 166 c 0
 163 164 164 160 167 156 c 0
 170 152 171 150 172 149 c 0
 173 148 174 145 178 141 c 0
 182 137 184 135 185 134 c 2
 208 111 l 1
 167 82 l 1
 165 85 159 92 149 103 c 0
 139 114 133 123 130 128 c 0
 127 133 122 141 118 152 c 0
 114 163 112 174 112 186 c 0
 112 213 121 236 138 254 c 0
 155 272 176 280 203 280 c 1
EndSplineSet
Colour: ffda6b
EndChar

StartChar: _.mark.tanvin_fatheh
Encoding: 65649 -1 113
GlifName: _.mark.tanvin_fatheh
Width: 0
VWidth: 2280
GlyphClass: 2
Flags: HMW
LayerCount: 2
Fore
SplineSet
0 49 m 1
 256 168 l 1
 278 118 l 1
 23 -0 l 1
 0 49 l 1
0 170 m 1
 256 289 l 1
 278 240 l 1
 23 120 l 1
 0 170 l 1
EndSplineSet
Colour: ffda6b
EndChar

StartChar: _.mark.tanvin_kasreh
Encoding: 65650 -1 114
GlifName: _.mark.tanvin_kasreh
Width: 0
VWidth: 2413
GlyphClass: 2
Flags: HMW
LayerCount: 2
Fore
SplineSet
0 -120 m 1
 256 -1 l 1
 279 -51 l 1
 23 -170 l 1
 0 -120 l 1
0 -240 m 1
 256 -122 l 1
 279 -171 l 1
 23 -291 l 1
 0 -240 l 1
EndSplineSet
Colour: ffda6b
EndChar

StartChar: _.mark.tanvin_zameh
Encoding: 65651 -1 115
GlifName: _.mark.tanvin_zameh
Width: 0
VWidth: 2273
GlyphClass: 2
Flags: HMW
LayerCount: 2
Fore
SplineSet
0 151 m 1
 25 111 l 2
 27 112 30 114 34 116 c 0
 38 118 42 121 44 123 c 0
 51 126 56 127 59 127 c 0
 68 127 73 118 73 101 c 0
 72 94 70 82 65 66 c 1
 106 90 l 1
 108 101 109 110 109 119 c 0
 109 137 105 151 96 162 c 0
 87 173 75 178 59 178 c 0
 40 176 21 167 0 151 c 1
131 193 m 0
 131 220 139 243 156 261 c 0
 173 279 195 288 222 288 c 1
 245 285 262 276 276 261 c 0
 290 246 297 226 297 202 c 2
 297 196 l 2
 297 143 269 105 212 81 c 2
 42 2 l 1
 18 52 l 1
 196 134 l 2
 228 149 244 169 244 194 c 0
 244 203 240 211 234 218 c 0
 228 225 221 229 213 229 c 0
 203 229 194 226 187 220 c 0
 180 214 176 205 176 196 c 0
 176 193 176 189 176 186 c 0
 176 183 177 180 178 178 c 0
 179 176 180 173 181 170 c 0
 182 167 183 165 184 164 c 0
 186 162 186 162 189 158 c 0
 191 155 192 153 193 152 c 0
 194 151 195 149 198 146 c 0
 201 143 202 142 203 141 c 0
 204 140 207 137 210 134 c 0
 213 131 216 129 219 126 c 0
 222 123 224 120 227 117 c 1
 186 90 l 1
 183 93 177 100 168 110 c 0
 159 120 153 128 149 134 c 0
 145 140 141 148 137 159 c 0
 133 170 131 181 131 193 c 0
EndSplineSet
Colour: ffda6b
EndChar

StartChar: _.mark.tashdid
Encoding: 65652 -1 116
GlifName: _.mark.tashdid
Width: 0
VWidth: 1833
GlyphClass: 2
Flags: HMW
LayerCount: 2
Fore
SplineSet
0 119 m 0
 0 132 0 142 1 149 c 0
 1 154 2 162 3 171 c 0
 4 180 5 186 5 188 c 2
 51 184 l 1
 46 157 43 136 43 121 c 0
 43 99 46 82 53 70 c 0
 60 58 68 52 78 52 c 0
 93 52 108 64 124 89 c 0
 140 114 151 147 158 189 c 1
 198 181 l 1
 175 81 l 1
 200 60 220 50 234 50 c 0
 255 50 265 72 265 116 c 0
 265 123 264 132 264 140 c 0
 264 148 263 156 262 165 c 0
 261 174 261 180 261 184 c 1
 307 188 l 1
 308 177 309 161 309 139 c 0
 309 98 303 64 292 38 c 0
 281 12 264 -1 240 -1 c 0
 217 -1 188 13 154 40 c 1
 131 14 105 1 75 1 c 0
 54 1 36 11 22 30 c 0
 8 49 0 79 0 119 c 0
EndSplineSet
Colour: ffda6b
EndChar

StartChar: _.mark.hamze
Encoding: 65653 -1 117
GlifName: _.mark.hamze
Width: 0
VWidth: 1841
GlyphClass: 2
Flags: HMW
LayerCount: 2
Fore
SplineSet
138 291 m 0
 119 291 103 286 90 276 c 0
 77 266 71 252 71 233 c 0
 71 213 78 196 93 184 c 0
 108 172 123 165 138 162 c 1
 256 218 l 1
 279 167 l 1
 23 49 l 1
 0 98 l 1
 78 134 l 1
 40 152 21 183 21 227 c 0
 21 258 31 286 52 310 c 0
 73 334 102 345 137 345 c 0
 160 345 186 339 213 326 c 1
 203 280 l 1
 176 287 154 291 138 291 c 0
EndSplineSet
Colour: ffda6b
EndChar

StartChar: _.mark.sakon
Encoding: 65654 -1 118
GlifName: _.mark.sakon
Width: 0
VWidth: 2099
GlyphClass: 2
Flags: HMW
LayerCount: 2
Fore
SplineSet
164 145 m 0
 164 121 156 100 141 84 c 0
 126 68 106 60 82 60 c 0
 45 60 20 77 7 112 c 0
 2 121 0 132 0 145 c 0
 0 180 17 206 50 223 c 0
 60 227 71 229 82 229 c 0
 106 229 126 221 141 205 c 0
 156 189 164 169 164 145 c 0
80 181 m 0
 70 181 61 177 54 170 c 0
 47 163 43 154 43 144 c 0
 43 133 47 125 54 118 c 0
 61 111 69 107 80 107 c 0
 91 107 100 111 107 118 c 0
 114 125 118 133 118 144 c 0
 118 154 114 163 107 170 c 0
 100 177 91 181 80 181 c 0
EndSplineSet
Colour: ffda6b
EndChar

StartChar: _.mark.alef
Encoding: 65655 -1 119
GlifName: _.mark.alef
Width: 0
VWidth: 2091
GlyphClass: 2
Flags: HMW
LayerCount: 2
Fore
SplineSet
0 245 m 1
 52 263 l 1
 67 222 77 186 82 152 c 0
 87 118 89 76 89 26 c 1
 42 26 l 1
 42 94 28 167 0 245 c 1
EndSplineSet
Colour: ffda6b
EndChar

StartChar: _.sing.momaiez
Encoding: 65656 -1 120
GlifName: _.sing.momaiez
Width: 402
VWidth: 1352
GlyphClass: 2
Flags: HMW
LayerCount: 2
Fore
SplineSet
50 -189 m 1
 265 410 l 1
 352 400 l 1
 141 -198 l 1
 134 -200 127 -201 120 -201 c 0
 104 -201 81 -197 50 -189 c 1
EndSplineSet
Colour: ffda6b
EndChar

StartChar: _.sing.hezare
Encoding: 65657 -1 121
GlifName: _.sing.hezare
Width: 222
VWidth: 1197
GlyphClass: 2
Flags: HMW
LayerCount: 2
Fore
SplineSet
50 900 m 1
 172 900 l 1
 130 700 l 1
 91 700 l 1
 50 900 l 1
EndSplineSet
Colour: ffda6b
EndChar

StartChar: _.sing.darsad
Encoding: 65658 -1 122
GlifName: _.sing.darsad
Width: 620
VWidth: 1197
GlyphClass: 2
Flags: HMW
LayerCount: 2
Fore
SplineSet
50 88 m 1
 471 736 l 1
 570 709 l 1
 147 63 l 1
 50 88 l 1
94 661 m 1
 111 695 131 729 155 763 c 1
 230 722 267 693 267 677 c 0
 267 662 250 629 216 580 c 1
 146 629 105 656 94 661 c 1
371 132 m 1
 388 164 409 198 434 234 c 1
 508 191 545 160 545 139 c 0
 545 132 528 103 493 52 c 1
 420 101 379 128 371 132 c 1
EndSplineSet
Colour: ffda6b
EndChar

StartChar: _.sing.mosavi
Encoding: 65659 -1 123
GlifName: _.sing.mosavi
Width: 488
VWidth: 1197
GlyphClass: 2
Flags: HMW
LayerCount: 2
Fore
SplineSet
50 124 m 1
 50 194 l 1
 438 194 l 1
 438 124 l 1
 50 124 l 1
50 300 m 1
 50 370 l 1
 438 370 l 1
 438 300 l 1
 50 300 l 1
EndSplineSet
Colour: ffda6b
EndChar

StartChar: _.beh_k.init
Encoding: 65661 -1 125
GlifName: _.beh_k.init
Width: 327
VWidth: 1197
GlyphClass: 2
UnlinkRmOvrlpSave: 1
Flags: HMW
LayerCount: 2
Fore
SplineSet
216 400 m 1
 235 347 263 266 263 189 c 0
 263 117 238 58 167 27 c 1
 136 10 91 0 25 -0 c 2
 -1 -0 l 2
 -25 0 -50 24 -50 49 c 0
 -50 76 -27 100 -1 100 c 2
 24 100 l 2
 73 100 114 107 146 119 c 0
 169 130 183 134 183 162 c 0
 183 188 170 237 138 335 c 1
 216 400 l 1
EndSplineSet
Colour: ffda6b
EndChar

StartChar: _.beh_k.medi
Encoding: 65662 -1 126
GlifName: _.beh_k.medi
Width: 388
VWidth: 1304
GlyphClass: 2
UnlinkRmOvrlpSave: 1
Flags: HMW
LayerCount: 2
Fore
SplineSet
-50 50 m 0
 -50 76 -26 100 -1 100 c 0
 36 100 72 104 108 114 c 0
 145 125 149 145 154 202 c 2
 165 311 l 1
 248 304 l 1
 236 181 l 2
 235 174 235 167 235 160 c 0
 235 142 240 125 266 119 c 0
 299 109 339 100 388 100 c 1
 388 -0 l 1
 320 0 277 10 245 27 c 1
 224 36 209 48 195 60 c 1
 162 29 97 0 0 -0 c 0
 -25 0 -50 24 -50 50 c 0
EndSplineSet
Colour: ffda6b
EndChar

StartChar: _.sing.3noqte
Encoding: 65663 -1 127
GlifName: _.sing.3noqte
Width: 767
VWidth: 1304
GlyphClass: 2
Flags: HMW
LayerCount: 2
Fore
SplineSet
50 136 m 1
 128 214 l 1
 205 136 l 1
 128 59 l 1
 50 136 l 1
300 136 m 1
 377 214 l 1
 454 136 l 1
 377 59 l 1
 300 136 l 1
562 136 m 1
 640 214 l 1
 717 136 l 1
 640 59 l 1
 562 136 l 1
EndSplineSet
Colour: ffda6b
EndChar

StartChar: s.khat_tire
Encoding: 8208 8208 138
GlifName: s.khat_tire
Width: 504
VWidth: 0
GlyphClass: 2
Flags: HMW
LayerCount: 2
Fore
SplineSet
55 229 m 1
 55 307 l 1
 451 307 l 1
 451 229 l 1
 55 229 l 1
EndSplineSet
Colour: d7d7d7
EndChar

StartChar: s.zwj
Encoding: 8205 8205 174
GlifName: s.zwj
Width: 0
VWidth: 1331
GlyphClass: 2
Flags: HMW
LayerCount: 2
Fore
SplineSet
25 -327 m 1
 -25 -327 l 1
 -25 579 l 1
 -111 491 l 1
 -141 521 l 1
 -30 631 l 1
 -141 740 l 1
 -111 772 l 1
 0 660 l 1
 111 772 l 1
 141 740 l 1
 30 631 l 1
 141 521 l 1
 111 491 l 1
 25 579 l 1
 25 -327 l 1
EndSplineSet
Colour: d7d7d7
EndChar

StartChar: s.tagsim
Encoding: 247 247 182
GlifName: s.tagsim
Width: 564
VWidth: 1278
GlyphClass: 2
Flags: HMW
LayerCount: 2
Fore
SplineSet
59 352 m 1
 59 429 l 1
 506 429 l 1
 506 352 l 1
 59 352 l 1
234 204 m 1
 234 299 l 1
 330 299 l 1
 330 204 l 1
 234 204 l 1
234 482 m 1
 234 577 l 1
 330 577 l 1
 330 482 l 1
 234 482 l 1
EndSplineSet
Colour: d7d7d7
EndChar

StartChar: s.zwnj
Encoding: 8204 8204 215
GlifName: s.zwnj
Width: 0
VWidth: 1331
GlyphClass: 2
Flags: HMW
LayerCount: 2
Fore
SplineSet
-25 -308 m 1
 -25 710 l 1
 25 710 l 1
 25 -308 l 1
 -25 -308 l 1
EndSplineSet
Colour: d7d7d7
EndChar

StartChar: s.dotted_circle
Encoding: 9676 9676 220
GlifName: s.dotted_circle
Width: 576
VWidth: 1890
GlyphClass: 2
Flags: HMW
LayerCount: 2
Fore
SplineSet
60 181 m 0
 60 196 67 203 82 203 c 0
 97 203 104 196 104 182 c 2
 104 180 l 2
 104 166 97 159 82 159 c 0
 67 159 60 166 60 181 c 0
76 103 m 0
 76 118 83 126 98 126 c 0
 113 126 120 118 120 103 c 0
 120 88 113 80 98 80 c 0
 83 80 76 88 76 103 c 0
76 259 m 0
 76 274 83 282 98 282 c 0
 113 282 120 274 120 259 c 0
 120 244 113 236 99 236 c 0
 84 236 76 244 76 259 c 0
120 34 m 0
 120 49 127 56 142 57 c 0
 157 56 164 49 165 34 c 0
 164 19 157 12 142 12 c 0
 127 12 120 19 120 34 c 0
120 326 m 0
 120 341 127 348 142 349 c 0
 157 348 164 341 165 326 c 0
 164 311 157 304 142 304 c 0
 127 304 120 311 120 326 c 0
187 -8 m 0
 187 7 195 14 210 14 c 0
 225 14 233 7 233 -8 c 0
 233 -23 225 -30 210 -30 c 0
 195 -30 187 -23 187 -8 c 0
187 372 m 0
 187 387 195 394 210 394 c 0
 225 394 233 387 233 372 c 0
 233 357 225 350 210 350 c 0
 195 350 187 357 187 372 c 0
310 -26 m 0
 310 -41 303 -48 288 -48 c 0
 273 -48 266 -41 265 -26 c 0
 266 -11 273 -4 288 -3 c 0
 303 -4 310 -11 310 -26 c 0
288 410 m 0
 303 410 310 403 310 388 c 0
 310 373 303 366 288 365 c 0
 273 366 266 373 265 388 c 0
 266 403 273 410 288 410 c 0
344 -8 m 0
 344 7 352 14 367 14 c 0
 382 14 390 7 390 -8 c 0
 390 -22 382 -30 367 -31 c 0
 352 -30 344 -22 344 -8 c 0
344 372 m 0
 344 387 352 394 367 394 c 0
 382 394 390 387 390 372 c 0
 390 358 382 350 367 349 c 0
 352 350 344 358 344 372 c 0
412 34 m 0
 412 49 419 56 434 57 c 0
 449 56 456 49 456 34 c 0
 456 19 449 12 434 12 c 0
 419 12 412 19 412 34 c 0
412 326 m 0
 412 341 419 348 434 349 c 0
 449 348 456 341 456 326 c 0
 456 311 449 304 434 304 c 0
 419 304 412 311 412 326 c 0
456 103 m 0
 456 118 463 126 478 126 c 0
 492 126 500 118 501 103 c 0
 500 88 492 80 478 80 c 0
 463 80 456 88 456 103 c 0
456 259 m 0
 456 274 463 282 478 282 c 0
 492 282 500 274 501 259 c 0
 500 244 492 236 478 236 c 0
 463 236 456 244 456 259 c 0
472 181 m 0
 472 196 479 203 494 203 c 0
 509 203 516 196 517 182 c 2
 517 180 l 2
 516 166 509 159 494 159 c 0
 479 159 472 166 472 181 c 0
EndSplineSet
Colour: d7d7d7
EndChar

StartChar: s.figure_dash
Encoding: 8210 8210 224
GlifName: s.figure_dash
Width: 600
VWidth: 0
GlyphClass: 2
Flags: HMW
LayerCount: 2
Fore
SplineSet
55 229 m 1
 55 307 l 1
 547 307 l 1
 547 229 l 1
 55 229 l 1
EndSplineSet
Colour: d7d7d7
EndChar

StartChar: s.em_dash
Encoding: 8212 8212 263
GlifName: s.em_dash
Width: 1200
VWidth: 1175
GlyphClass: 2
Flags: HMW
LayerCount: 2
Fore
SplineSet
55 229 m 1
 55 307 l 1
 1147 307 l 1
 1147 229 l 1
 55 229 l 1
EndSplineSet
Colour: d7d7d7
EndChar

StartChar: s.bullet
Encoding: 8226 8226 278
GlifName: s.bullet
Width: 602
VWidth: 1331
GlyphClass: 2
Flags: HMW
LayerCount: 2
Fore
SplineSet
532 432 m 0
 532 369 509 315 464 270 c 0
 419 225 365 202 302 202 c 0
 245 202 194 223 147 266 c 0
 100 309 77 357 77 410 c 0
 77 483 99 542 142 585 c 0
 185 628 236 650 295 650 c 0
 368 650 426 630 468 591 c 0
 510 552 532 499 532 432 c 0
EndSplineSet
Colour: d7d7d7
EndChar

StartChar: s.en_dash
Encoding: 8211 8211 310
GlifName: s.en_dash
Width: 600
VWidth: 1175
GlyphClass: 2
Flags: HMW
LayerCount: 2
Fore
SplineSet
55 229 m 1
 55 307 l 1
 547 307 l 1
 547 229 l 1
 55 229 l 1
EndSplineSet
Colour: d7d7d7
EndChar

StartChar: s.horizontal_bar
Encoding: 8213 8213 316
GlifName: s.horizontal_bar
Width: 2400
VWidth: 1175
GlyphClass: 2
Flags: HMW
LayerCount: 2
Fore
SplineSet
55 229 m 1
 55 307 l 1
 2347 307 l 1
 2347 229 l 1
 55 229 l 1
EndSplineSet
Colour: d7d7d7
EndChar

StartChar: s.lrm
Encoding: 8206 8206 317
GlifName: s.lrm
Width: 0
VWidth: 1331
GlyphClass: 2
Flags: HMW
LayerCount: 2
Fore
SplineSet
-25 -308 m 1
 -25 676 l 1
 196 676 l 1
 106 759 l 1
 138 790 l 1
 280 651 l 1
 138 510 l 1
 106 544 l 1
 196 628 l 1
 22 628 l 1
 22 -308 l 1
 -25 -308 l 1
EndSplineSet
Colour: d7d7d7
EndChar

StartChar: s.rlm
Encoding: 8207 8207 346
GlifName: s.rlm
Width: 0
VWidth: 1331
GlyphClass: 2
Flags: HMW
LayerCount: 2
Fore
SplineSet
22 676 m 1
 22 -308 l 1
 -25 -308 l 1
 -25 628 l 1
 -196 628 l 1
 -108 544 l 1
 -138 510 l 1
 -280 651 l 1
 -138 790 l 1
 -108 759 l 1
 -196 676 l 1
 22 676 l 1
EndSplineSet
Colour: d7d7d7
EndChar

StartChar: _.mark.he_yeh
Encoding: 65664 -1 400
GlifName: _.mark.he_yeh
Width: 209
VWidth: 1304
GlyphClass: 1
UnlinkRmOvrlpSave: 1
Flags: HMW
LayerCount: 2
Fore
SplineSet
192 89 m 2
 192 90 l 2
 192 95 184 100 167 104 c 0
 153 107 144 109 141 109 c 0
 122 114 113 124 113 141 c 0
 113 176 135 207 178 234 c 0
 191 241 202 245 210 245 c 1
 210 200 l 1
 186 200 165 187 147 162 c 1
 145 156 l 2
 145 152 157 146 180 138 c 0
 205 130 218 124 221 120 c 0
 224 115 226 106 226 92 c 0
 226 77 219 62 206 49 c 0
 169 12 101 -6 0 -6 c 1
 17 42 l 1
 96 42 150 53 178 75 c 0
 187 82 192 87 192 89 c 2
EndSplineSet
EndChar

StartChar: uni0000
Encoding: 0 0 401
GlifName: uni0000
Width: 497
VWidth: 0
GlyphClass: 2
Flags: HMW
LayerCount: 2
Fore
SplineSet
59 -251 m 1
 59 709 l 1
 438 709 l 1
 438 -251 l 1
 59 -251 l 1
105 -181 m 1
 387 -181 l 1
 387 648 l 1
 105 648 l 1
 105 -181 l 1
EndSplineSet
EndChar

StartChar: _.ghaf.medi
Encoding: 65665 -1 402
GlifName: _.ghaf.medi
Width: 493
VWidth: 0
GlyphClass: 2
Flags: HMW
LayerCount: 2
Fore
SplineSet
60 100 m 2
 127 100 225 118 225 179 c 0
 225 203 217 241 193 288 c 1
 193 289 l 1
 162 348 101 422 -1 500 c 1
 36 620 l 1
 470 800 l 1
 463 692 l 1
 99 548 l 1
 158 496 201 443 232 391 c 0
 239 377 247 366 253 352 c 0
 308 241 355 100 493 100 c 1
 493 -0 l 1
 377 0 322 47 279 116 c 1
 243 24 142 0 51 -0 c 2
 -1 -0 l 2
 -25 0 -50 24 -50 49 c 0
 -50 76 -27 100 -1 100 c 2
 60 100 l 2
89 682 m 1
 105 740 l 1
 414 868 l 1
 402 814 l 1
 89 682 l 1
EndSplineSet
Colour: ffda6b
EndChar

StartChar: _.ghaf.init
Encoding: 65666 -1 403
GlifName: _.ghaf.init
Width: 534
VWidth: 0
GlyphClass: 2
Flags: HMW
LayerCount: 2
Fore
SplineSet
99 548 m 1
 238 428 291 301 291 192 c 0
 291 50 184 0 51 -0 c 2
 -1 -0 l 2
 -25 0 -50 24 -50 49 c 0
 -50 76 -27 100 -1 100 c 2
 60 100 l 2
 120 100 208 119 222 160 c 0
 224 165 225 171 225 179 c 0
 225 233 182 361 -1 500 c 1
 36 620 l 1
 470 800 l 1
 463 692 l 1
 99 548 l 1
89 682 m 1
 105 740 l 1
 414 868 l 1
 402 814 l 1
 89 682 l 1
EndSplineSet
Colour: ffda6b
EndChar

StartChar: l.allah.ref1
Encoding: 65667 -1 404
Width: 1300
VWidth: 0
Flags: HM
LayerCount: 2
Fore
SplineSet
460 100 m 0
 524 100 557 132 560 196 c 1
 530 591 l 1
 612 668 l 1
 631 200 l 1
 631 196 l 2
 633 132 666 100 731 100 c 1
 731 0 l 1
 669 0 624 19 596 58 c 1
 567 19 522 0 460 0 c 0
 448 0 437 5 426 16 c 0
 415 27 410 38 410 50 c 0
 411 62 417 73 426 84 c 0
 436 95 447 100 460 100 c 0
EndSplineSet
Comment: "l.allah had both contours and references, so the contours were moved into this glyph, and a reference to it was added in the original."
Colour: ff8080
EndChar

StartChar: _.la.isol.fa
Encoding: 65668 -1 405
Width: 562
VWidth: 0
Flags: HMW
LayerCount: 2
Fore
SplineSet
64 599 m 0
 64 617 77 636 114 678 c 0
 121 680 126 679 128 672 c 2
 290 236 l 2
 291 233 291 230 291 226 c 0
 291 200 266 162 248 157 c 1
 75 559 l 2
 68 576 64 588 64 599 c 0
114 50 m 0
 114 75 137 99 162 100 c 1
 167 100 l 2
 297 100 418 179 434 220 c 1
 392 699 l 2
 392 708 391 715 391 721 c 0
 391 751 400 761 464 801 c 0
 471 801 477 799 477 790 c 2
 498 276 l 1
 497 191 465 110 392 60 c 0
 334 21 253 0 164 -0 c 1
 139 1 114 24 114 50 c 0
EndSplineSet
Colour: ffda6b
EndChar

StartChar: _.la.fina.fa
Encoding: 65669 -1 406
Width: 674
VWidth: 0
Flags: HMW
LayerCount: 2
Fore
SplineSet
64 599 m 0
 64 617 77 636 114 678 c 0
 121 680 126 679 128 672 c 2
 290 236 l 2
 291 233 291 230 291 226 c 0
 291 200 266 162 248 157 c 1
 75 559 l 2
 68 576 64 588 64 599 c 0
114 50 m 0
 114 75 137 99 162 100 c 1
 167 100 l 2
 297 100 418 179 434 220 c 1
 392 699 l 2
 392 708 391 715 391 721 c 0
 391 751 400 761 464 801 c 0
 471 801 477 799 477 790 c 2
 497 277 l 1
 503 182 530 100 674 100 c 1
 674 -0 l 1
 535 0 480 59 458 134 c 1
 414 48 297 0 164 -0 c 1
 139 1 114 24 114 50 c 0
EndSplineSet
Colour: ffda6b
EndChar

StartChar: _.sing.alef_maad
Encoding: 65672 -1 409
Width: 505
VWidth: 1352
Flags: HMW
LayerCount: 2
Fore
SplineSet
50 31 m 1
 67 75 88 105 113 122 c 0
 138 139 166 147 199 147 c 0
 213 147 234 146 262 142 c 0
 290 138 312 136 325 136 c 0
 381 136 422 163 448 216 c 1
 455 166 l 1
 444 119 426 87 401 70 c 0
 376 53 346 44 309 44 c 0
 294 44 270 46 239 50 c 0
 208 54 185 55 171 55 c 0
 122 55 90 37 77 0 c 1
 50 31 l 1
EndSplineSet
Colour: ffda6b
EndChar

StartChar: _.sing.star
Encoding: 65673 -1 410
Width: 503
VWidth: 1197
Flags: HMW
LayerCount: 2
Fore
SplineSet
50 543 m 1
 72 609 l 1
 123 593 l 2
 136 589 154 582 177 572 c 0
 200 562 215 557 221 555 c 1
 220 561 220 570 219 582 c 0
 218 594 218 603 217 609 c 0
 217 615 216 624 216 635 c 0
 216 646 216 655 216 660 c 2
 216 714 l 1
 286 714 l 1
 286 660 l 2
 286 623 284 588 280 555 c 1
 290 558 306 565 329 574 c 0
 352 583 368 590 379 593 c 2
 430 609 l 1
 453 543 l 1
 401 525 l 2
 390 522 373 518 350 512 c 0
 327 506 310 501 299 498 c 1
 305 491 327 464 365 417 c 1
 397 373 l 1
 341 332 l 1
 309 375 l 2
 289 402 270 432 252 463 c 1
 216 408 197 379 194 375 c 2
 162 332 l 1
 105 373 l 1
 136 417 l 2
 145 426 167 453 203 498 c 1
 192 501 175 506 152 512 c 0
 129 518 113 522 102 525 c 2
 50 543 l 1
EndSplineSet
Colour: ffda6b
EndChar

